<svg width="23" height="18" viewBox="0 0 23 18" fill="none" xmlns="http://www.w3.org/2000/svg">
<path fill-rule="evenodd" clip-rule="evenodd" d="M0 1.11111C0 0.816426 0.114987 0.533811 0.319666 0.325437C0.524344 0.117063 0.801948 0 1.09141 0H21.483C21.7725 0 22.0501 0.117063 22.2547 0.325437C22.4594 0.533811 22.5744 0.816426 22.5744 1.11111C22.5744 1.4058 22.4594 1.68841 22.2547 1.89679C22.0501 2.10516 21.7725 2.22222 21.483 2.22222H1.09141C0.801948 2.22222 0.524344 2.10516 0.319666 1.89679C0.114987 1.68841 0 1.4058 0 1.11111ZM0 9C0 8.70531 0.114987 8.4227 0.319666 8.21433C0.524344 8.00595 0.801948 7.88889 1.09141 7.88889H21.483C21.7725 7.88889 22.0501 8.00595 22.2547 8.21433C22.4594 8.4227 22.5744 8.70531 22.5744 9C22.5744 9.29469 22.4594 9.5773 22.2547 9.78568C22.0501 9.99405 21.7725 10.1111 21.483 10.1111H1.09141C0.801948 10.1111 0.524344 9.99405 0.319666 9.78568C0.114987 9.5773 0 9.29469 0 9ZM0 16.8889C0 16.5942 0.114987 16.3116 0.319666 16.1032C0.524344 15.8948 0.801948 15.7778 1.09141 15.7778H21.483C21.7725 15.7778 22.0501 15.8948 22.2547 16.1032C22.4594 16.3116 22.5744 16.5942 22.5744 16.8889C22.5744 17.1836 22.4594 17.4662 22.2547 17.6746C22.0501 17.8829 21.7725 18 21.483 18H1.09141C0.801948 18 0.524344 17.8829 0.319666 17.6746C0.114987 17.4662 0 17.1836 0 16.8889Z" fill="#333333"/>
</svg>
