<svg width="22" height="16" viewBox="0 0 22 16" fill="none" xmlns="http://www.w3.org/2000/svg">
<path d="M20.7232 2.54118H1.27679C0.553274 2.54118 0 1.99059 0 1.27059C0 0.550588 0.553274 0 1.27679 0H20.7232C21.4467 0 22 0.550588 22 1.27059C22 1.99059 21.4467 2.54118 20.7232 2.54118ZM20.7232 9.27059H1.27679C0.553274 9.27059 0 8.72 0 8C0 7.28 0.553274 6.72941 1.27679 6.72941H20.7232C21.4467 6.72941 22 7.28 22 8C22 8.72 21.4467 9.27059 20.7232 9.27059ZM20.7232 16H1.27679C0.553274 16 0 15.4494 0 14.7294C0 14.0094 0.553274 13.4588 1.27679 13.4588H20.7232C21.4467 13.4588 22 14.0094 22 14.7294C22 15.4494 21.4467 16 20.7232 16Z" fill="white"/>
</svg>
