<svg width="34" height="34" viewBox="0 0 34 34" fill="none" xmlns="http://www.w3.org/2000/svg">
<circle cx="16.7061" cy="16.7061" r="16.2061" fill="white" stroke="#5F7C6A"/>
<path d="M23.2683 9H11.2439C10.914 9 10.5976 9.13105 10.3643 9.36433C10.1311 9.59761 10 9.914 10 10.2439V24.5488C10.0003 24.8211 10.0786 25.0876 10.2255 25.3168C10.3725 25.5461 10.582 25.7284 10.8293 25.8424C11.0287 25.9471 11.2508 26.0012 11.4761 26C11.7757 25.9902 12.0651 25.8889 12.3054 25.7097L16.7419 22.3927C16.8855 22.285 17.0601 22.2268 17.2395 22.2268C17.4189 22.2268 17.5935 22.285 17.7371 22.3927L22.1736 25.7097C22.3893 25.8714 22.6456 25.9699 22.914 25.9941C23.1825 26.0183 23.4523 25.9673 23.6934 25.8468C23.9344 25.7262 24.1372 25.541 24.2789 25.3117C24.4205 25.0825 24.4956 24.8183 24.4956 24.5488V10.2439C24.4956 9.91685 24.3668 9.60295 24.1371 9.37014C23.9074 9.13734 23.5953 9.00436 23.2683 9Z" fill="#5F7C6A"/>
</svg>
