<svg width="23" height="16" viewBox="0 0 23 16" fill="none" xmlns="http://www.w3.org/2000/svg">
<path d="M11.3401 11.8185C13.2684 11.8185 14.8316 10.1116 14.8316 8.00595C14.8316 5.90031 13.2684 4.19336 11.3401 4.19336C9.41182 4.19336 7.84863 5.90031 7.84863 8.00595C7.84863 10.1116 9.41182 11.8185 11.3401 11.8185Z" fill="#5F7C6A"/>
<path d="M22.3312 6.95035C19.6474 3.40893 15.5848 0 11.3396 0C7.0935 0 3.02998 3.41132 0.347949 6.95035C-0.115983 7.56227 -0.115983 8.45061 0.347949 9.06253C1.02224 9.95229 2.43586 11.6699 4.32388 13.1706C9.0788 16.9504 13.5899 16.9587 18.3553 13.1706C20.2433 11.6699 21.6569 9.95229 22.3312 9.06253C22.7938 8.4518 22.7962 7.56427 22.3312 6.95035ZM11.3396 2.66881C14.035 2.66881 16.2277 5.06312 16.2277 8.00644C16.2277 10.9498 14.035 13.3441 11.3396 13.3441C8.64416 13.3441 6.4515 10.9498 6.4515 8.00644C6.4515 5.06312 8.64416 2.66881 11.3396 2.66881Z" fill="#5F7C6A"/>
</svg>
