<svg width="34" height="34" viewBox="0 0 34 34" fill="none" xmlns="http://www.w3.org/2000/svg">
<path d="M16.6455 0.5C25.5625 0.5 32.7918 7.72856 32.792 16.6455C32.792 25.5626 25.5626 32.792 16.6455 32.792C7.72856 32.7918 0.5 25.5625 0.5 16.6455C0.500176 7.72867 7.72867 0.500176 16.6455 0.5Z" fill="white" stroke="#E9BC25"/>
<path d="M18.9453 7.69629H20.3486V8.33203H19.8418C18.8646 8.33203 17.8824 8.5737 17.2217 9.37988C16.6157 10.1196 16.5498 11.0299 16.5498 11.6367V15.5146H20.3574L20.2314 16.6064H16.5713L16.5693 18.0586L16.5557 25.5947H15.6406V16.6064H12.8291L12.8252 15.5146H15.6406V11.2607C15.6406 9.92496 16.0311 9.07016 16.54 8.55371C17.0488 8.03743 17.8357 7.69629 18.9453 7.69629Z" fill="#E9BC25" stroke="#E9BC25" stroke-width="2.90909"/>
</svg>
