<svg width="14" height="24" viewBox="0 0 14 24" fill="none" xmlns="http://www.w3.org/2000/svg">
<path d="M4.07676 13.134C3.99016 13.134 2.08498 13.134 1.21899 13.134C0.757125 13.134 0.612793 12.9608 0.612793 12.5278C0.612793 11.3731 0.612793 10.1896 0.612793 9.03495C0.612793 8.57309 0.785991 8.42876 1.21899 8.42876H4.07676C4.07676 8.34216 4.07676 6.66791 4.07676 5.88851C4.07676 4.73386 4.27883 3.63693 4.85615 2.62661C5.46235 1.58742 6.32834 0.894627 7.42526 0.490497C8.14692 0.2307 8.86858 0.115234 9.64798 0.115234H12.4769C12.881 0.115234 13.0542 0.288433 13.0542 0.692562V3.98333C13.0542 4.38746 12.881 4.56066 12.4769 4.56066C11.6975 4.56066 10.9181 4.56066 10.1387 4.58953C9.35931 4.58953 8.95518 4.96479 8.95518 5.77305C8.92632 6.63904 8.95518 7.47617 8.95518 8.37103H12.3037C12.7655 8.37103 12.9387 8.54422 12.9387 9.00609V12.4989C12.9387 12.9608 12.7944 13.1051 12.3037 13.1051C11.2645 13.1051 9.04178 13.1051 8.95518 13.1051V22.5156C8.95518 23.0063 8.81085 23.1795 8.29126 23.1795C7.07887 23.1795 5.89534 23.1795 4.68296 23.1795C4.24996 23.1795 4.07676 23.0063 4.07676 22.5733C4.07676 19.5423 4.07676 13.2206 4.07676 13.134Z" fill="#E9BC25"/>
</svg>
