<svg width="233" height="189" viewBox="0 0 233 189" fill="none" xmlns="http://www.w3.org/2000/svg">
<path d="M191.995 44.5918C191.096 54.3207 192.084 68.4096 185.604 83.3955C179.087 98.468 165.08 114.417 134.414 128.41C119.302 135.306 112.694 148.463 110.357 160.803C109.189 166.973 109.097 172.913 109.542 177.701C109.765 180.095 110.12 182.191 110.538 183.874C110.961 185.577 111.431 186.793 111.851 187.476L110.147 188.524C109.567 187.582 109.037 186.131 108.597 184.355C108.151 182.56 107.781 180.364 107.551 177.887C107.09 172.933 107.185 166.804 108.392 160.431C110.805 147.682 117.697 133.839 133.584 126.59C163.919 112.748 177.495 97.1127 183.769 82.6025C190.081 68.0059 189.07 54.5126 190.004 44.4082L191.995 44.5918Z" fill="#F7F6F2"/>
<path d="M38.8007 66.377C38.7407 66.1902 38.6607 66.0135 38.604 65.8268C30.9399 64.4333 23.0899 64.404 15.4156 65.7401C18.6801 73.5496 24.3588 83.5999 34.0157 92.6165C34.049 92.6465 34.0924 92.6665 34.1257 92.6999C35.1394 93.6836 36.2231 94.5939 37.3669 95.5442C37.5336 95.6809 37.7037 95.7977 37.8704 95.9344C39.1175 96.9481 40.3713 97.9051 41.6351 98.8087C42.3987 99.3523 43.1657 99.8525 43.9359 100.359C44.5595 100.769 45.1797 101.18 45.8066 101.566C46.817 102.187 47.8274 102.784 48.8411 103.34L49.598 103.751C58.5879 108.572 67.5378 111.02 75.1039 112.207C74.5404 111.86 73.9535 111.457 73.38 111.083C72.7831 110.696 72.1995 110.333 71.5926 109.919C70.7457 109.343 69.8887 108.706 69.0284 108.075C68.4382 107.642 67.8513 107.238 67.2577 106.778C66.3041 106.045 65.3504 105.234 64.3967 104.431C63.8899 104.004 63.3863 103.617 62.8795 103.174C61.3829 101.86 59.9337 100.493 58.5346 99.0755C52.7413 93.1708 47.8574 86.4382 44.0426 79.0983C43.0477 77.1562 42.131 75.175 41.295 73.1594C41.1749 72.8693 41.0449 72.5826 40.9282 72.2925C40.1481 70.3488 39.4407 68.3767 38.8074 66.3803L38.8007 66.377ZM151.825 98.6987C151.135 99.3156 150.408 99.9258 149.668 100.543L149.534 100.659C149.498 100.693 149.458 100.719 149.418 100.749C148.337 101.643 147.247 102.487 146.153 103.3C145.776 103.58 145.399 103.844 145.026 104.114C144.236 104.681 143.445 105.234 142.652 105.765C142.265 106.021 141.881 106.278 141.495 106.525C140.621 107.085 139.747 107.622 138.87 108.139C138.597 108.299 138.324 108.472 138.05 108.629C136.873 109.306 135.696 109.946 134.519 110.55L134.259 110.676C133.165 111.23 132.075 111.75 130.988 112.24L130.237 112.57C129.257 113.001 128.283 113.411 127.31 113.794L126.706 114.034C123.171 115.4 119.55 116.53 115.865 117.416C114.752 117.686 113.648 117.929 112.564 118.149L112.541 118.152C110.283 118.606 108.099 118.956 106.005 119.216L105.808 119.24C105.275 119.306 104.738 119.373 104.221 119.43C114.603 123.909 125.749 126.353 137.053 126.629C156.573 127.116 172.146 121.074 182.623 115.165C177.501 110.41 166.697 101.96 151.825 98.6987ZM75.6708 104.648C76.8912 105.471 78.085 106.215 79.2588 106.925C79.6222 107.145 79.9757 107.349 80.3325 107.555C81.1661 108.042 81.9831 108.502 82.78 108.932C83.1168 109.116 83.4569 109.303 83.7871 109.476C84.7908 110.003 85.7711 110.496 86.6948 110.936L86.8448 111.01C86.8148 110.793 86.7915 110.523 86.7615 110.3C86.6048 109.093 86.4769 107.884 86.378 106.672C86.3113 105.845 86.2613 104.988 86.2179 104.091C86.1946 103.587 86.1713 103.097 86.1579 102.577C86.1351 101.565 86.134 100.554 86.1546 99.5424C86.1613 99.0555 86.1546 98.592 86.1746 98.0918C86.2697 95.0074 86.5705 91.9328 87.0749 88.8885C87.165 88.3516 87.2917 87.7948 87.395 87.2479C87.5518 86.4309 87.6885 85.6206 87.8752 84.787C87.6451 83.8533 87.3617 82.9397 87.0883 82.0227C86.8748 81.3057 86.6915 80.5788 86.4514 79.8719C86.0946 78.8215 85.6644 77.8045 85.2509 76.7774C84.9875 76.1305 84.7608 75.467 84.474 74.8267C83.9738 73.7063 83.3969 72.6226 82.8234 71.5322C82.5566 71.022 82.3232 70.4918 82.0431 69.9883C81.1544 68.4082 80.1942 66.8694 79.1654 65.3766C76.6216 61.6632 73.665 58.2502 70.3522 55.2029C59.7183 45.326 47.9307 41.4279 41.475 39.9474C41.4098 47.411 42.4068 54.846 44.4361 62.0287C45.8024 66.8651 47.6524 71.5549 49.9581 76.0205C53.465 82.7694 57.9544 88.9602 63.2796 94.3905C64.5134 95.6409 65.7639 96.798 67.0176 97.9151C67.3878 98.2452 67.7612 98.5587 68.1347 98.8788C69.0584 99.6691 69.9821 100.429 70.9057 101.15C71.2692 101.436 71.636 101.726 71.9995 102.003C73.2132 102.92 74.4237 103.797 75.6141 104.601L75.6708 104.641V104.648ZM133.749 103.354C134.779 102.787 135.806 102.18 136.833 101.55C137.44 101.173 138.047 100.776 138.65 100.376C139.434 99.8625 140.218 99.3523 140.994 98.7988C142.222 97.9218 143.439 96.9914 144.649 96.0077C144.849 95.8477 145.053 95.7076 145.253 95.5409C146.396 94.5939 147.48 93.6802 148.494 92.6965L148.591 92.6232C158.271 83.5699 163.949 73.5262 167.207 65.7368C159.525 64.4041 151.668 64.4323 143.996 65.8201C143.939 66.0068 143.856 66.1869 143.799 66.377C143.177 68.364 142.478 70.3262 141.705 72.2591C141.585 72.5526 141.458 72.8393 141.335 73.1328C140.503 75.1551 139.587 77.142 138.59 79.0883C133.857 88.2182 127.46 96.3842 119.73 103.167C119.217 103.62 118.703 104.014 118.19 104.447C117.243 105.244 116.299 106.045 115.355 106.775C114.762 107.235 114.178 107.639 113.588 108.072C112.731 108.702 111.874 109.339 111.027 109.916C110.413 110.333 109.823 110.703 109.22 111.093C108.653 111.46 108.076 111.857 107.519 112.2C115.092 111.01 124.055 108.559 133.058 103.727L133.749 103.354ZM45.5665 126.629C56.8694 126.353 68.0141 123.909 78.3951 119.43C77.8783 119.376 77.3447 119.306 76.8145 119.24L76.6111 119.216C74.4303 118.944 72.2603 118.591 70.1054 118.159L69.9887 118.136C68.9263 117.921 67.868 117.686 66.8142 117.432L66.4008 117.332C65.3068 117.065 64.2185 116.776 63.1362 116.465L62.9895 116.425C60.6239 115.739 58.2887 114.953 55.9903 114.068L55.1967 113.754C52.9525 112.863 50.7485 111.874 48.591 110.79C48.4142 110.7 48.2375 110.62 48.0574 110.53C46.8973 109.934 45.751 109.311 44.6195 108.662C44.2894 108.472 43.9626 108.269 43.6325 108.072C42.3798 107.328 41.1468 106.552 39.9345 105.745C39.1559 105.222 38.3855 104.687 37.6236 104.141C37.2368 103.864 36.8534 103.594 36.4699 103.307C35.3291 102.462 34.2106 101.586 33.1153 100.683L33.112 100.679L33.0987 100.669L33.052 100.629C32.275 99.9825 31.5181 99.349 30.7945 98.702C15.9224 101.967 5.12186 110.416 0 115.168C10.4805 121.074 26.1595 127.082 45.5699 126.632L45.5665 126.629ZM76.1376 51.5016C77.0413 52.3752 77.8683 53.3423 78.7219 54.2726C79.2488 54.8461 79.799 55.3797 80.3058 55.9732C81.8397 57.7672 83.3002 59.6345 84.6507 61.5986C85.8966 63.4136 87.0507 65.29 88.1086 67.2206C88.4488 67.8375 88.7355 68.4844 89.0556 69.1113C89.7359 70.4418 90.3961 71.7823 90.983 73.1561C91.083 73.3862 91.2098 73.6029 91.3065 73.8364C91.4032 73.6063 91.5299 73.3895 91.6299 73.1594C92.2235 71.7689 92.8904 70.4151 93.5806 69.0713C93.8941 68.4577 94.1708 67.8308 94.5043 67.2273C95.564 65.292 96.7203 63.4111 97.9689 61.5919C99.3185 59.6436 100.769 57.7671 102.314 55.9699C102.817 55.3797 103.371 54.8461 103.894 54.2759C104.751 53.3423 105.578 52.3786 106.482 51.5016C104.421 38.6469 95.5313 27.823 91.3098 23.3047C87.0883 27.823 78.1984 38.6469 76.1376 51.5016ZM107.719 104.087C109.971 102.526 112.143 100.853 114.228 99.0755C114.645 98.7187 115.065 98.3786 115.482 98.0085C122.516 91.802 128.341 84.3471 132.661 76.0205C134.962 71.5663 136.798 66.8879 138.143 62.0587C138.143 62.0487 138.15 62.0387 138.153 62.0321C140.194 54.9195 141.198 47.5101 141.145 39.9507C134.686 41.4313 122.905 45.3293 112.284 55.1896C108.968 58.2403 106.008 61.6567 103.461 65.3733C99.2605 71.4511 96.2392 78.2639 94.5543 85.4572C93.6047 89.3934 93.0407 93.4127 92.8704 97.4583C92.8537 97.7884 92.8437 98.1118 92.8337 98.4319C92.8037 99.3623 92.7903 100.266 92.797 101.143V101.743C92.8283 103.687 92.944 105.628 93.1438 107.562C93.1671 107.789 93.1871 108.029 93.2138 108.249C93.3038 109.052 93.4039 109.813 93.5106 110.51L93.5906 111.01C93.6406 111.333 93.694 111.617 93.744 111.914C94.1875 111.72 94.6343 111.52 95.1045 111.303C95.408 111.163 95.6981 111.033 96.0148 110.883C97.0119 110.406 98.0589 109.886 99.1493 109.309L99.246 109.259C100.356 108.669 101.517 108.012 102.701 107.312C103.057 107.102 103.424 106.865 103.784 106.642C104.628 106.125 105.485 105.585 106.352 105.011C106.802 104.711 107.259 104.394 107.716 104.081L107.719 104.087Z" fill="#F7F6F2"/>
<path d="M167.73 19.3976C167.703 19.3135 167.667 19.2339 167.641 19.1498C164.19 18.5223 160.654 18.5091 157.198 19.1108C158.668 22.6278 161.226 27.1539 165.575 31.2146C165.59 31.2281 165.609 31.2371 165.624 31.2521C166.081 31.6951 166.569 32.1051 167.084 32.533C167.159 32.5946 167.236 32.6472 167.311 32.7087C167.872 33.1653 168.437 33.5963 169.006 34.0032C169.35 34.248 169.695 34.4733 170.042 34.7015C170.323 34.8862 170.603 35.0709 170.885 35.2451C171.34 35.5245 171.795 35.7933 172.251 36.044L172.592 36.2288C176.641 38.4002 180.671 39.5025 184.079 40.0371C183.825 39.8809 183.561 39.6992 183.302 39.531C183.034 39.3568 182.771 39.1931 182.498 39.0069C182.116 38.7471 181.73 38.4603 181.343 38.1765C181.077 37.9813 180.813 37.7995 180.545 37.5923C180.116 37.2619 179.686 36.897 179.257 36.5351C179.029 36.3429 178.802 36.1687 178.574 35.969C177.9 35.3772 177.247 34.7616 176.617 34.1234C174.008 31.4642 171.808 28.4322 170.09 25.1266C169.642 24.252 169.23 23.3598 168.853 22.4521C168.799 22.3214 168.74 22.1923 168.688 22.0616C168.337 21.1863 168.018 20.2982 167.733 19.3991L167.73 19.3976ZM218.63 33.9537C218.319 34.2315 217.992 34.5063 217.659 34.7841L217.599 34.8367C217.582 34.8517 217.564 34.8637 217.546 34.8772C217.059 35.2797 216.568 35.6596 216.076 36.026C215.906 36.1522 215.736 36.2708 215.568 36.3924C215.212 36.6477 214.856 36.897 214.499 37.1358C214.325 37.2514 214.152 37.3671 213.978 37.4782C213.584 37.7305 213.191 37.9722 212.796 38.205C212.673 38.2771 212.55 38.3552 212.427 38.4258C211.897 38.7306 211.366 39.0189 210.836 39.2907L210.719 39.3478C210.227 39.5971 209.736 39.8314 209.246 40.0521L208.908 40.2008C208.467 40.3945 208.028 40.5792 207.59 40.7519L207.318 40.86C205.726 41.4753 204.095 41.984 202.436 42.3828C201.934 42.5044 201.437 42.614 200.949 42.7131L200.939 42.7146C199.922 42.9189 198.938 43.0766 197.995 43.1937L197.907 43.2042C197.666 43.2342 197.425 43.2643 197.192 43.2898C201.867 45.3073 206.887 46.408 211.978 46.532C220.769 46.7512 227.782 44.0301 232.5 41.3691C230.193 39.2277 225.328 35.4223 218.63 33.9537ZM184.334 36.6327C184.884 37.0036 185.421 37.3385 185.95 37.6584C186.114 37.7575 186.273 37.8491 186.434 37.9422C186.809 38.1615 187.177 38.3687 187.536 38.5624C187.687 38.645 187.841 38.7291 187.989 38.8072C188.441 39.0445 188.883 39.2667 189.299 39.4649L189.366 39.498C189.353 39.4004 189.342 39.2787 189.329 39.1781C189.258 38.6349 189.201 38.0902 189.156 37.5443C189.126 37.1718 189.104 36.7859 189.084 36.3819C189.074 36.1552 189.063 35.9344 189.057 35.7002C189.047 35.2447 189.046 34.7891 189.056 34.3336C189.059 34.1144 189.056 33.9056 189.065 33.6804C189.107 32.2913 189.243 30.9067 189.47 29.5356C189.511 29.2939 189.568 29.0431 189.614 28.7968C189.685 28.4289 189.746 28.064 189.83 27.6885C189.727 27.2681 189.599 26.8566 189.476 26.4436C189.38 26.1207 189.297 25.7934 189.189 25.475C189.029 25.002 188.835 24.544 188.649 24.0814C188.53 23.7901 188.428 23.4913 188.299 23.2029C188.073 22.6984 187.814 22.2103 187.555 21.7192C187.435 21.4895 187.33 21.2507 187.204 21.0239C186.804 20.3123 186.371 19.6193 185.908 18.9471C184.762 17.2747 183.431 15.7377 181.939 14.3654C177.15 9.91729 171.841 8.1618 168.934 7.49504C168.905 10.8563 169.354 14.2046 170.268 17.4394C170.883 19.6174 171.716 21.7295 172.754 23.7405C174.334 26.7799 176.356 29.5679 178.754 32.0135C179.309 32.5766 179.873 33.0977 180.437 33.6008C180.604 33.7494 180.772 33.8906 180.94 34.0348C181.356 34.3907 181.772 34.7331 182.188 35.0574C182.352 35.1866 182.517 35.3172 182.681 35.4419C183.227 35.8548 183.773 36.2498 184.309 36.6117L184.334 36.6297V36.6327ZM210.489 36.0501C210.953 35.7948 211.416 35.5215 211.879 35.2376C212.152 35.0679 212.425 34.8892 212.697 34.709C213.05 34.4778 213.403 34.248 213.753 33.9987C214.305 33.6038 214.853 33.1848 215.399 32.7418C215.489 32.6697 215.58 32.6066 215.67 32.5315C216.185 32.1051 216.674 31.6936 217.13 31.2506L217.174 31.2176C221.533 27.1404 224.09 22.6173 225.558 19.1093C222.098 18.5091 218.56 18.5218 215.104 19.1468C215.079 19.2309 215.041 19.312 215.016 19.3976C214.736 20.2924 214.421 21.1761 214.073 22.0466C214.018 22.1788 213.961 22.3079 213.906 22.4401C213.531 23.3508 213.119 24.2456 212.67 25.1221C210.538 29.2338 207.658 32.9113 204.176 35.966C203.945 36.1702 203.714 36.3474 203.482 36.5426C203.056 36.9015 202.631 37.2619 202.206 37.5908C201.939 37.798 201.676 37.9798 201.41 38.175C201.024 38.4588 200.638 38.7456 200.257 39.0054C199.98 39.1931 199.715 39.3598 199.443 39.5355C199.188 39.7007 198.928 39.8794 198.677 40.0341C202.087 39.498 206.124 38.3942 210.179 36.2183L210.489 36.0501ZM170.777 46.532C175.867 46.4078 180.886 45.3072 185.561 43.2898C185.328 43.2658 185.088 43.2342 184.849 43.2042L184.758 43.1937C183.776 43.071 182.798 42.9122 181.828 42.7176L181.775 42.7071C181.297 42.6103 180.82 42.5046 180.346 42.3903L180.159 42.3452C179.667 42.225 179.177 42.0948 178.689 41.9548L178.623 41.9368C177.558 41.6279 176.506 41.2737 175.471 40.875L175.114 40.7339C174.103 40.3326 173.11 39.8871 172.139 39.3989C172.059 39.3583 171.98 39.3223 171.899 39.2817C171.376 39.0133 170.86 38.7329 170.35 38.4408C170.202 38.3552 170.054 38.2636 169.906 38.175C169.342 37.8401 168.786 37.4906 168.24 37.1268C167.89 36.8914 167.543 36.6506 167.2 36.4045C167.025 36.2798 166.853 36.1582 166.68 36.029C166.166 35.6483 165.663 35.2542 165.169 34.8472L165.168 34.8457L165.162 34.8412L165.141 34.8232C164.791 34.5318 164.45 34.2465 164.124 33.9552C157.427 35.4253 152.562 39.2307 150.256 41.3706C154.976 44.0301 162.037 46.7362 170.778 46.5335L170.777 46.532ZM184.544 12.6985C184.951 13.0919 185.324 13.5274 185.708 13.9464C185.946 14.2047 186.193 14.445 186.422 14.7123C187.112 15.5202 187.77 16.3611 188.378 17.2456C188.939 18.063 189.459 18.9081 189.936 19.7775C190.089 20.0553 190.218 20.3467 190.362 20.629C190.668 21.2282 190.966 21.8319 191.23 22.4506C191.275 22.5542 191.332 22.6518 191.376 22.7569C191.419 22.6533 191.476 22.5557 191.521 22.4521C191.789 21.8259 192.089 21.2162 192.4 20.611C192.541 20.3347 192.666 20.0523 192.816 19.7805C193.293 18.9089 193.814 18.0619 194.376 17.2426C194.984 16.3652 195.637 15.5201 196.333 14.7108C196.56 14.445 196.809 14.2047 197.045 13.9479C197.431 13.5274 197.803 13.0934 198.21 12.6985C197.282 6.90937 193.278 2.03482 191.377 0C189.476 2.03482 185.472 6.90937 184.544 12.6985ZM198.767 36.3804C199.781 35.6773 200.76 34.924 201.698 34.1234C201.886 33.9627 202.075 33.8095 202.263 33.6428C205.431 30.8478 208.054 27.4904 210 23.7405C211.036 21.7346 211.863 19.6277 212.469 17.4529C212.469 17.4484 212.472 17.4439 212.473 17.4409C213.392 14.2377 213.844 10.9009 213.82 7.49654C210.911 8.1633 205.606 9.9188 200.823 14.3594C199.33 15.7333 197.997 17.2718 196.849 18.9456C194.958 21.6827 193.597 24.7509 192.838 27.9904C192.411 29.763 192.157 31.5731 192.08 33.395C192.072 33.5437 192.068 33.6894 192.063 33.8335C192.05 34.2525 192.044 34.6595 192.047 35.0544V35.3247C192.061 36.2001 192.113 37.0744 192.203 37.9452C192.214 38.0473 192.223 38.1555 192.235 38.2546C192.275 38.6165 192.32 38.9589 192.368 39.2727L192.404 39.498C192.427 39.6436 192.451 39.7713 192.473 39.9049C192.673 39.8178 192.874 39.7277 193.086 39.6301C193.223 39.5671 193.353 39.5085 193.496 39.4409C193.945 39.2262 194.417 38.9919 194.908 38.7321L194.951 38.7096C195.451 38.4438 195.974 38.1479 196.507 37.8326C196.668 37.738 196.833 37.6314 196.995 37.5307C197.375 37.298 197.761 37.0547 198.151 36.7964C198.354 36.6613 198.56 36.5186 198.766 36.3774L198.767 36.3804Z" fill="#F7F6F2"/>
<path d="M93.7944 124.354C93.0863 130.167 93.0089 140.164 95.1223 151.081C97.2359 161.998 101.519 173.723 109.44 183.109L107.226 185C98.8767 175.109 94.4428 162.858 92.2706 151.638C90.0983 140.418 90.1654 130.114 90.91 124L93.7944 124.354Z" fill="#F7F6F2"/>
</svg>
