<svg width="60" height="53" viewBox="0 0 60 53" fill="none" xmlns="http://www.w3.org/2000/svg">
<path d="M58.6864 50.5087H55.3252C56.1027 49.4466 56.4231 48.0998 56.1755 46.763C56.0444 46.0576 55.7587 45.39 55.3389 44.8082C56.0926 44.6342 56.7974 44.2927 57.4009 43.8089C57.5735 43.6711 57.7135 43.4967 57.8108 43.2983C57.9081 43.1 57.9602 42.8825 57.9634 42.6616C57.9674 42.4406 57.9224 42.2214 57.8316 42.0199C57.7408 41.8184 57.6064 41.6394 57.4382 41.496L49.3631 34.5924C48.7686 34.084 48.3232 33.4238 48.0743 32.6821L46.1878 27.0484C46.1873 27.0467 46.1864 27.045 46.1859 27.0431L44.487 21.9715C43.7167 19.6718 41.8755 17.8652 39.5617 17.1385L33.7109 15.3009C35.2994 14.1808 36.34 12.3329 36.34 10.2454V6.18447C36.34 2.77402 33.5655 0 30.1556 0C26.7458 0 23.9713 2.77414 23.9713 6.18435V10.2458C23.9713 12.2369 24.9182 14.0104 26.3846 15.1419C26.2329 15.1838 26.0815 15.2278 25.9307 15.275L19.9971 17.1385C17.6834 17.8651 15.8421 19.6718 15.0719 21.9715L11.484 32.6821C11.2355 33.4238 10.7902 34.0841 10.1957 34.5924L2.12062 41.4966C1.95245 41.6399 1.81813 41.8187 1.72732 42.0202C1.63651 42.2216 1.59146 42.4407 1.59541 42.6616C1.59861 42.8825 1.65072 43.1 1.74799 43.2984C1.84526 43.4967 1.98527 43.6711 2.15796 43.8089C2.78843 44.3148 3.52932 44.6648 4.32046 44.8305C3.59017 46.174 3.45151 47.8126 4.01452 49.2981C4.18552 49.7475 4.41038 50.1524 4.68119 50.5091H0.872444C0.75786 50.509 0.644391 50.5315 0.53852 50.5754C0.43265 50.6192 0.336454 50.6835 0.255431 50.7645C0.174408 50.8455 0.110146 50.9417 0.0663175 51.0476C0.0224893 51.1534 -4.57912e-05 51.2669 6.98578e-08 51.3815C6.98578e-08 51.6129 0.091918 51.8348 0.255533 51.9984C0.419148 52.162 0.641058 52.2539 0.872444 52.2539H58.6864C58.9154 52.2502 59.1337 52.1566 59.2943 51.9934C59.4549 51.8301 59.545 51.6103 59.545 51.3813C59.545 51.1523 59.4549 50.9324 59.2943 50.7692C59.1337 50.6059 58.9154 50.5123 58.6864 50.5086V50.5087ZM38.8314 30.156L41.9128 37.823C41.93 37.8658 41.9505 37.9071 41.9741 37.9467C42.5203 38.8555 43.2949 39.6055 44.2207 40.1223L45.242 40.6917L38.8314 38.7341V30.156ZM48.2289 35.9188L56.0705 42.6224C55.0189 43.325 53.6653 43.3871 52.5452 42.7647L45.0703 38.5982C44.4304 38.2411 43.8917 37.7274 43.5046 37.1052L40.7581 30.271L44.8314 28.4929L46.42 33.2359C46.7691 34.2774 47.3943 35.2045 48.2288 35.9186L48.2289 35.9188ZM25.7162 10.2456V6.18435C25.7162 3.7365 27.7078 1.74489 30.1556 1.74489C32.6035 1.74489 34.5951 3.7365 34.5951 6.18435V10.2458C34.5951 12.6936 32.6036 14.6852 30.1556 14.6852C27.7077 14.6852 25.7162 12.6936 25.7162 10.2456ZM20.5197 18.8029L26.4537 16.9398C28.6293 16.2564 30.9295 16.2564 33.1052 16.9398L39.0392 18.8029C40.8213 19.3627 42.2394 20.7541 42.8325 22.5258L44.2751 26.8322L40.107 28.6511L38.7683 25.3203C38.6929 25.1321 38.5543 24.976 38.3763 24.8789C38.1983 24.7817 37.9921 24.7497 37.793 24.7882C37.5939 24.8267 37.4145 24.9334 37.2856 25.0899C37.1566 25.2464 37.0863 25.4429 37.0866 25.6457V38.5074H22.4723V25.6458C22.4723 25.2282 22.176 24.8687 21.7656 24.7893C21.5667 24.7509 21.3607 24.783 21.1828 24.8799C21.0049 24.9768 20.8662 25.1325 20.7906 25.3204L19.6319 28.2031L15.5145 26.1442L16.7264 22.5259C17.3194 20.7543 18.7377 19.3628 20.5198 18.803L20.5197 18.8029ZM11.3296 35.9188C12.1644 35.2049 12.7896 34.2776 13.1384 33.2361L14.9543 27.815L18.9788 29.8276L18.3445 31.4057C18.3017 31.512 18.2804 31.6257 18.2816 31.7402C18.2828 31.8548 18.3066 31.968 18.3515 32.0734C18.3965 32.1788 18.4617 32.2743 18.5436 32.3544C18.6255 32.4346 18.7223 32.4978 18.8286 32.5405C18.9349 32.5833 19.0486 32.6046 19.1632 32.6034C19.2777 32.6022 19.3909 32.5785 19.4963 32.5335C19.6017 32.4885 19.6972 32.4233 19.7774 32.3414C19.8575 32.2595 19.9208 32.1627 19.9635 32.0564L20.7274 30.1566V38.7315L14.4426 40.6218L15.3378 40.1224C16.2638 39.6059 17.0385 38.8559 17.5848 37.9471C17.6084 37.9077 17.6288 37.8664 17.6461 37.8231L18.2982 36.2C18.341 36.0938 18.3624 35.9801 18.3612 35.8656C18.3601 35.751 18.3363 35.6378 18.2914 35.5324C18.2465 35.427 18.1812 35.3315 18.0993 35.2514C18.0174 35.1713 17.9206 35.1081 17.8143 35.0654C17.708 35.0226 17.5943 35.0012 17.4797 35.0024C17.3651 35.0036 17.2519 35.0273 17.1465 35.0722C17.0411 35.1172 16.9455 35.1824 16.8654 35.2643C16.7852 35.3461 16.7219 35.443 16.6792 35.5493L16.0539 37.1053C15.6671 37.7276 15.1284 38.2414 14.4885 38.5984L7.01445 42.7643C5.89342 43.3872 4.5402 43.325 3.48826 42.6225L11.3296 35.9188ZM8.33824 50.5087H8.33498C7.06726 50.5087 6.08757 49.8422 5.64634 48.6794C5.14742 47.3634 5.48919 45.812 6.47377 44.8401L21.7279 40.2525H37.8292L52.3108 44.6747C53.4409 45.0196 54.2444 45.9194 54.4597 47.0812C54.6751 48.2431 54.248 49.3709 53.3165 50.098L52.7907 50.5092H34.3666C34.2538 49.8975 33.9822 49.0842 33.3392 48.3603L35.0773 48.2644C35.1917 48.2582 35.3037 48.2294 35.407 48.1798C35.5103 48.1302 35.6028 48.0607 35.6792 47.9754C35.7556 47.89 35.8145 47.7904 35.8524 47.6823C35.8903 47.5742 35.9065 47.4596 35.9001 47.3452C35.8739 46.8644 35.4622 46.4964 34.9814 46.5223L30.2529 46.7836C30.0449 46.7462 29.8356 46.7168 29.6254 46.6954L16.1693 45.2899C16.0553 45.2777 15.94 45.2881 15.8301 45.3206C15.7202 45.3532 15.6177 45.4071 15.5287 45.4793C15.4396 45.5515 15.3657 45.6405 15.3112 45.7414C15.2567 45.8422 15.2226 45.9529 15.211 46.0669C15.187 46.297 15.2554 46.5273 15.4011 46.707C15.5468 46.8867 15.7579 47.0012 15.9881 47.0252L29.445 48.4307C29.6486 48.4516 29.8399 48.4802 30.0189 48.5148C30.0224 48.5156 30.0266 48.516 30.0302 48.5171C31.772 48.8587 32.3845 49.8066 32.5958 50.5086L8.33824 50.5087Z" fill="#5F7C6A"/>
</svg>
