<svg width="60" height="58" viewBox="0 0 60 58" fill="none" xmlns="http://www.w3.org/2000/svg">
<path d="M26.0457 26.0337C26.0969 25.5518 26.5291 25.2026 27.0111 25.2538C27.493 25.305 27.8421 25.7372 27.7909 26.2191C27.4147 29.7604 26.7941 34.2493 25.8296 37.6265C25.6965 38.0925 25.2107 38.3624 24.7447 38.2293C24.2787 38.0962 24.0088 37.6105 24.1419 37.1445C25.0623 33.9217 25.671 29.5602 26.0457 26.0337ZM32.9176 25.3999C33.3995 25.3482 33.832 25.697 33.8837 26.1789C34.2199 29.3122 34.7402 33.084 35.4997 36.1261C35.6172 36.5963 35.3311 37.0728 34.8609 37.1902C34.3907 37.3075 33.9144 37.0215 33.797 36.5513C33.0076 33.3899 32.4773 29.5223 32.1386 26.366C32.0869 25.8841 32.4357 25.4516 32.9176 25.3999Z" fill="#5F7C6A"/>
<path d="M38.3312 33.5627C40.1678 33.5628 41.761 34.6007 42.5581 36.1199C42.9594 35.9705 43.3853 35.8932 43.8162 35.8938H43.8176C45.8644 35.8946 47.5111 37.6011 47.4182 39.6662H58.4791C59.565 39.6662 60.2849 40.8453 59.7114 41.8126L59.7116 41.8127C57.7014 45.2038 49.148 57.3338 29.8062 57.3338C10.4459 57.3338 2.12932 45.1809 0.191115 41.7942C-0.362006 40.8277 0.356676 39.6664 1.43432 39.6663H6.00928C6.49394 39.6664 6.88684 40.0593 6.88684 40.5439C6.88684 41.0286 6.49393 41.4215 6.00928 41.4215H2.01011C4.26371 45.104 12.2121 55.5787 29.8062 55.5787C47.3883 55.5787 55.5536 45.1186 57.8929 41.4214H10.1825C9.69783 41.4214 9.30494 41.0285 9.30493 40.5438C9.30493 40.0591 9.69783 39.6662 10.1825 39.6662H13.5312C13.6223 37.9466 15.0454 36.5779 16.7895 36.5771C17.1479 36.5765 17.5024 36.6355 17.8394 36.7497C18.569 35.4317 19.9746 34.5378 21.5896 34.5378C23.3483 34.5378 24.8582 35.5966 25.5182 37.1102C25.6451 37.0941 25.773 37.086 25.9013 37.0861H25.9024C27.4191 37.0867 28.6733 38.2092 28.8815 39.6662H30.0893C30.1539 37.895 31.6119 36.4761 33.4016 36.4755C33.5749 36.4753 33.7477 36.4888 33.9184 36.5155C34.6326 34.7829 36.3387 33.5627 38.3312 33.5627ZM38.3312 35.3179C36.9757 35.3179 35.8275 36.2115 35.4483 37.4419C35.2536 38.0739 34.5715 38.5144 33.8594 38.298L33.8038 38.2823C33.6733 38.2479 33.5388 38.2304 33.4038 38.2306H33.4027C32.5831 38.2306 31.9116 38.8608 31.8472 39.6662H45.6598C45.6615 39.6459 45.6631 39.6254 45.6642 39.6049V39.6044C45.7216 38.5335 44.8723 37.6489 43.8162 37.6489H43.8146C43.5069 37.6483 43.204 37.7252 42.9337 37.8723L42.9336 37.8722C42.2431 38.248 41.4324 37.9107 41.1462 37.2465L41.133 37.2147C40.6883 36.1019 39.5999 35.3179 38.3312 35.3179ZM21.5896 36.2929C20.5263 36.2929 19.6134 36.9498 19.2404 37.8829L19.2405 37.883C18.9782 38.5402 18.1855 38.8814 17.5108 38.5142V38.5143C17.2904 38.3944 17.0434 38.3318 16.7925 38.3322H16.791C16.0173 38.3322 15.3797 38.9143 15.2921 39.6662H27.0804C26.9046 39.184 26.4435 38.8412 25.9013 38.8412H25.9C25.7762 38.8411 25.653 38.8591 25.5345 38.8949L25.5346 38.8951C24.848 39.1044 24.1934 38.6791 24.0068 38.0738V38.0737C23.6888 37.0421 22.726 36.2929 21.5896 36.2929Z" fill="#5F7C6A"/>
<path d="M28.1875 40.6596C28.3528 40.204 28.856 39.9686 29.3116 40.1339C29.7673 40.2991 30.0026 40.8025 29.8374 41.2581L28.8083 44.0953C28.6816 44.4446 28.643 44.5989 28.6535 44.7176C28.6631 44.8254 28.7138 44.9415 28.8541 45.1971L28.9198 45.3156L28.9199 45.3158C29.4078 46.1877 29.9891 47.425 29.758 48.7408L29.7463 48.8035C29.6556 49.2684 29.4639 49.6984 29.3399 49.9993C29.201 50.3361 29.1215 50.5637 29.102 50.782C29.0679 51.1622 29.198 51.5525 29.3944 52.2075C29.5632 52.7707 29.7975 53.5888 29.525 54.4368C29.3767 54.8982 28.8823 55.1521 28.4209 55.0038C27.9596 54.8555 27.7058 54.3613 27.8541 53.8999C27.9407 53.6302 27.8914 53.3061 27.7132 52.7114C27.5624 52.2085 27.2821 51.4253 27.3538 50.6254C27.3996 50.114 27.5789 49.6659 27.7173 49.3303C27.8705 48.9588 27.9745 48.7195 28.0236 48.4675H28.0237C28.154 47.8001 27.8703 47.034 27.3885 46.1731C27.2475 45.9213 26.9561 45.4434 26.9053 44.8735V44.8733C26.8548 44.3054 27.0528 43.788 27.1584 43.4968L28.1875 40.6596Z" fill="#5F7C6A"/>
<path d="M27.1665 46.0239C27.3736 45.5857 27.8966 45.3984 28.3348 45.6054C28.773 45.8124 28.9604 46.3354 28.7535 46.7736C28.2626 47.8126 27.4631 48.6871 26.484 49.226L26.4839 49.2261C26.3446 49.3028 26.2028 49.3722 26.0847 49.4305C25.9599 49.4921 25.8569 49.5435 25.7611 49.5973C25.5714 49.7038 25.4625 49.7919 25.3907 49.8839L25.3906 49.884C25.224 50.0976 25.1612 50.4065 25.023 51.0215C24.9097 51.5261 24.6878 52.3928 23.9957 52.9089C23.6071 53.1986 23.0573 53.1185 22.7675 52.7299C22.4778 52.3414 22.5579 51.7915 22.9465 51.5018C23.0622 51.4155 23.1895 51.176 23.3106 50.6368C23.4069 50.2082 23.5376 49.4057 24.007 48.8042C24.2819 48.4519 24.6161 48.2274 24.9018 48.067C25.0437 47.9873 25.1864 47.9166 25.3074 47.8568C25.4351 47.7938 25.5392 47.7426 25.6377 47.6884L25.697 47.6549C26.3075 47.3016 26.8343 46.7272 27.1665 46.0239ZM31.7719 40.0489C32.2555 40.0811 32.6214 40.4993 32.5891 40.9829C32.539 41.7346 32.5544 42.4104 32.7322 42.9975L32.7499 43.054L32.75 43.0541C32.9472 43.6634 33.3202 44.0693 33.6684 44.1897C33.7454 44.2163 33.8413 44.2389 33.9804 44.2658C34.0998 44.2889 34.2892 44.3215 34.4568 44.3613C34.8087 44.445 35.3085 44.6098 35.6842 45.0797L35.6843 45.0798C36.0694 45.5616 36.1321 46.1232 36.1452 46.5166C36.1518 46.7167 36.1457 46.9247 36.1429 47.0849C36.1398 47.259 36.1399 47.3951 36.15 47.5153C36.2149 48.2921 36.8015 48.9825 37.635 49.6833C38.0059 49.9952 38.0538 50.5488 37.7419 50.9197C37.43 51.2907 36.8764 51.3386 36.5055 51.0267C35.6671 50.3219 34.5655 49.2459 34.4077 47.734L34.4009 47.6617C34.3828 47.445 34.3848 47.231 34.388 47.0537C34.3914 46.8623 34.3958 46.7173 34.3911 46.5749C34.3814 46.2834 34.334 46.2015 34.3133 46.1757C34.3052 46.1655 34.2727 46.1216 34.051 46.0689C33.9315 46.0405 33.823 46.023 33.6472 45.9891C33.4912 45.9589 33.2945 45.9175 33.0947 45.8484C32.0421 45.4844 31.3765 44.5101 31.0801 43.5947C30.7808 42.6705 30.782 41.7045 30.8379 40.8661C30.8701 40.3825 31.2883 40.0166 31.7719 40.0489ZM24.888 40.2935C25.3587 40.1782 25.8338 40.4663 25.9491 40.937C26.1773 41.8684 26.0473 42.8944 25.5867 43.73C25.1249 44.5679 24.333 45.2057 23.4122 45.4271C23.2109 45.4755 23.0147 45.502 22.8515 45.5217C22.6724 45.5433 22.5494 45.5553 22.4163 45.5761C22.1629 45.6157 22.0579 45.6645 21.9942 45.717L21.9943 45.7171C21.9188 45.7794 21.832 45.9021 21.7153 46.189C21.6351 46.3859 21.4887 46.8196 21.3295 47.1508L21.2975 47.2156C20.7788 48.2357 19.7556 48.9666 18.6182 49.0378C18.1345 49.068 17.7178 48.7004 17.6875 48.2167C17.6573 47.7329 18.0249 47.3162 18.5086 47.286C18.969 47.2572 19.469 46.9393 19.7331 46.4201C19.8678 46.1552 19.9167 45.9524 20.0896 45.5274C20.1641 45.3443 20.2608 45.1289 20.3973 44.9146C20.2611 44.856 20.1292 44.8078 19.9966 44.7714C19.6467 44.6756 19.3561 44.6914 19.1498 44.7865C19.0328 44.8405 18.9368 44.9108 18.7097 45.0581C18.5207 45.1807 18.2315 45.3607 17.8739 45.4482C17.3207 45.5837 16.7856 45.4498 16.4472 45.3507L15.3518 45.0245C14.8873 44.8862 14.6228 44.3976 14.7611 43.9331C14.8994 43.4686 15.388 43.2042 15.8525 43.3424L16.8153 43.629C17.2163 43.7484 17.3616 43.7668 17.4566 43.7435C17.5055 43.7315 17.5829 43.697 17.7547 43.5856C17.8884 43.4989 18.1477 43.3158 18.4149 43.1926C19.1143 42.8703 19.8576 42.9135 20.4603 43.0786C21.0504 43.2402 21.5833 43.5326 22.008 43.7626C22.0523 43.7866 22.0936 43.8141 22.132 43.8442C22.1365 43.8435 22.1409 43.8427 22.1454 43.842C22.3186 43.8149 22.5087 43.7953 22.6412 43.7793C22.7895 43.7614 22.9032 43.7444 23.0018 43.7207C23.4063 43.6234 23.8071 43.3228 24.0496 42.8828C24.2934 42.4404 24.3699 41.8668 24.2444 41.3546C24.1292 40.8838 24.4173 40.4088 24.888 40.2935Z" fill="#5F7C6A"/>
<path d="M33.1079 44.4693C33.5582 44.2903 34.0684 44.5101 34.2475 44.9605C34.4083 45.3646 34.4865 45.875 34.4955 46.3404C34.5042 46.792 34.4512 47.3491 34.2309 47.7994V47.7995C34.0844 48.0987 33.8985 48.3482 33.7539 48.5383C33.5951 48.7472 33.4889 48.8816 33.4013 49.0304L33.4014 49.0305C33.19 49.3897 33.0914 49.8401 33.0813 50.3921C33.0713 50.9484 33.1511 51.5446 33.2483 52.1734C33.3224 52.6523 32.9941 53.1006 32.5152 53.1747C32.0362 53.2487 31.5878 52.9205 31.5137 52.4415C31.4165 51.8128 31.3135 51.083 31.3266 50.3602C31.3398 49.633 31.4704 48.8511 31.8888 48.1402L31.8889 48.14C32.0427 47.8788 32.2302 47.6427 32.357 47.4759C32.4981 47.2904 32.5901 47.1592 32.6543 47.0281C32.6951 46.9448 32.7472 46.715 32.7406 46.3744C32.7343 46.0476 32.6767 45.7601 32.6166 45.609C32.4376 45.1587 32.6575 44.6484 33.1079 44.4693ZM34.1488 40.2691C34.6135 40.1314 35.1018 40.3964 35.2395 40.8611C35.5319 41.8477 36.1646 42.5908 36.8392 42.9036C37.4721 43.197 38.2122 43.1467 38.8359 42.7443L38.8959 42.7042C38.9625 42.6582 39.0284 42.6086 39.1179 42.5421C39.2007 42.4807 39.3023 42.4057 39.4112 42.3349C39.6232 42.1968 39.9336 42.0253 40.3219 41.9817L40.322 41.9816C40.7879 41.9293 41.1815 42.08 41.4465 42.2071C41.5816 42.2719 41.71 42.3443 41.8111 42.4013C41.9209 42.4631 42.0016 42.5086 42.0792 42.5467C42.6244 42.8146 43.273 42.7681 43.8088 42.3941C44.2062 42.1166 44.7532 42.2139 45.0307 42.6113C45.3081 43.0087 45.2108 43.5557 44.8134 43.8331C43.7711 44.5608 42.4427 44.6809 41.3053 44.122L41.3052 44.1219C41.1743 44.0575 41.0475 43.9855 40.9494 43.9302C40.8427 43.8701 40.7627 43.8257 40.6875 43.7897C40.5788 43.7375 40.5295 43.7282 40.5164 43.7265C40.5043 43.7303 40.4601 43.7463 40.3687 43.8058C40.3096 43.8443 40.2461 43.8905 40.1644 43.9512C40.0894 44.0069 39.9914 44.0807 39.8928 44.1487C38.7639 44.9279 37.338 45.0694 36.101 44.496C34.8853 43.9324 33.9638 42.7334 33.5567 41.3597C33.419 40.895 33.6841 40.4068 34.1488 40.2691Z" fill="#5F7C6A"/>
<path d="M37.6511 43.63C37.8709 43.198 38.3993 43.0261 38.8313 43.2458C39.3883 43.5293 39.6969 44.1166 39.8638 44.5211C40.0518 44.977 40.1705 45.48 40.2243 45.8843C40.2706 46.2333 40.3152 46.5285 40.3906 46.7724C40.4584 46.9915 40.524 47.0753 40.5524 47.1025L40.5623 47.111L40.5624 47.1111C40.5664 47.114 40.5943 47.1353 40.7338 47.1617C40.8144 47.177 40.8745 47.1847 40.9954 47.2046C41.0994 47.2216 41.2321 47.2455 41.372 47.285L41.4399 47.3053C42.1367 47.5258 42.6641 48.0609 42.9936 48.6462C43.3386 49.2591 43.5198 50.0143 43.4446 50.7709C43.3967 51.2532 42.9668 51.6052 42.4846 51.5573C42.0023 51.5093 41.6501 51.0795 41.6981 50.5972C41.7354 50.2218 41.6434 49.8257 41.4642 49.5072C41.2801 49.1803 41.0559 49.0196 40.8948 48.9741C40.7535 48.9342 40.7086 48.9432 40.4073 48.8862C40.1735 48.8419 39.8378 48.7584 39.518 48.5216C39.0603 48.1828 38.8373 47.6899 38.7139 47.2913C38.6042 46.9368 38.5448 46.5585 38.5019 46.2455L38.4845 46.1156C38.4474 45.8366 38.3625 45.4844 38.2413 45.1905C38.1811 45.0445 38.1209 44.9351 38.0688 44.8626C38.0412 44.8243 38.023 44.806 38.0164 44.7998C37.5985 44.5744 37.4346 44.0555 37.6511 43.63ZM29.9567 0C33.8181 0 37.1501 2.25655 38.715 5.51937C39.4558 5.26801 40.2386 5.1637 41.0196 5.21222H41.0197C41.7251 5.25496 42.4173 5.42321 43.0637 5.70905C43.5069 5.90507 43.7074 6.4233 43.5113 6.86656C43.3153 7.3098 42.7971 7.51015 42.3538 7.31413C41.8984 7.11272 41.4106 6.99425 40.9135 6.96414L40.9119 6.96402C40.3528 6.92912 39.7922 7.00487 39.2624 7.18707C38.445 7.46837 37.525 7.10277 37.1447 6.303L37.1446 6.30288C35.8651 3.61147 33.1262 1.75512 29.9567 1.75512C26.7872 1.75513 24.0485 3.61149 22.769 6.30288C22.3888 7.10267 21.4685 7.46836 20.6512 7.18707V7.18718C20.1213 7.00499 19.5607 6.92913 19.0015 6.96402L19 6.96414C16.8414 7.09503 15.0962 8.87317 15.0032 11.0403V11.0417C14.9798 11.5677 15.0535 12.0935 15.2206 12.5929L15.2323 12.6296C15.4697 13.4028 15.024 14.2123 14.2623 14.4429V14.4428C12.8199 14.8797 11.7839 16.2527 11.8583 17.8581L11.8628 17.9347L11.8691 18.0138C12.0214 19.6699 13.3916 20.9962 15.0558 21.0866C15.6647 21.1196 16.2369 20.9924 16.7386 20.745H16.7387C17.5028 20.3684 18.4874 20.5945 18.9539 21.3916L18.9927 21.4569C19.8197 22.8195 21.3125 23.726 23.0157 23.726C23.3885 23.726 23.7504 23.6822 24.0972 23.6003L24.1518 23.5883C24.7161 23.4749 25.265 23.6711 25.6434 24.0275L25.7504 24.1259C26.8667 25.1304 28.3396 25.7406 29.9566 25.7406C31.6258 25.7406 33.1415 25.0904 34.2699 24.0275L34.307 23.9935C34.6962 23.6476 35.2508 23.4668 35.8158 23.6002H35.8159C36.1703 23.6838 36.5332 23.7261 36.8973 23.726H36.8977C38.6279 23.726 40.141 22.7904 40.9595 21.3916L40.9816 21.3547C41.449 20.5997 42.3919 20.3811 43.1386 20.7278L43.1746 20.745L43.1747 20.7451C43.6763 20.9925 44.2486 21.1196 44.8575 21.0866C46.5481 20.9948 47.9353 19.6275 48.0505 17.9347L48.0549 17.8581C48.1292 16.2528 47.0935 14.8798 45.651 14.4428C44.8772 14.2085 44.4294 13.3768 44.6927 12.5927C44.8598 12.0935 44.9335 11.5678 44.9101 11.0418C44.91 11.0413 44.91 11.0407 44.91 11.0401C44.8881 10.5283 44.7731 10.0247 44.5704 9.55419C44.3786 9.1091 44.5839 8.5928 45.029 8.40103C45.4741 8.20926 45.9904 8.41469 46.1822 8.8598C46.4692 9.526 46.6322 10.2389 46.6634 10.9637H46.6635C46.692 11.6037 46.6182 12.2435 46.446 12.8593C48.5172 13.6231 49.9631 15.6818 49.8017 18.0539C49.6262 20.6307 47.5291 22.6993 44.9527 22.8392C44.0515 22.8881 43.1941 22.703 42.4383 22.3383C41.3106 24.2184 39.2529 25.4809 36.8979 25.481L36.898 25.4811L36.8978 25.481L36.8977 25.4811V25.481C36.4133 25.4811 35.9306 25.4266 35.4585 25.3187C34.0198 26.6672 32.0846 27.4957 29.9566 27.4957C27.8287 27.4957 25.8934 26.6673 24.4547 25.3188C23.9916 25.4247 23.5098 25.4811 23.0157 25.4811C20.6606 25.4811 18.6028 24.2185 17.475 22.3384C16.7192 22.7031 15.8619 22.8881 14.9606 22.8392C12.3842 22.6993 10.2871 20.6307 10.1117 18.0539L10.105 17.9379C9.9976 15.6148 11.4299 13.6106 13.4672 12.8593C13.2952 12.244 13.2214 11.6047 13.2497 10.9651L13.2576 10.822C13.4548 7.87237 15.8062 5.47213 18.7508 5.22262L18.8938 5.21222C19.6747 5.16368 20.4575 5.26805 21.1983 5.51937C22.7632 2.25652 26.0954 1.66932e-05 29.9567 0ZM13.8421 13.0549L13.8422 13.0555L14.3886 12.8721L13.8421 13.0549ZM13.8422 13.0555L13.8421 13.0549L14.3886 12.8721L13.8422 13.0555Z" fill="#5F7C6A"/>
<path d="M25.9634 17.1133C28.1739 17.0096 30.0477 18.7199 30.1511 20.9305C30.1738 21.4146 29.7996 21.8255 29.3155 21.8482C28.8314 21.8708 28.4206 21.4967 28.3979 21.0125C28.3406 19.7873 27.3181 18.8384 26.1037 18.8646L26.0458 18.8665C25.1343 18.9094 24.3726 19.4902 24.0568 20.2931C23.8794 20.7441 23.3699 20.9659 22.9189 20.7886C22.4679 20.6112 22.246 20.1018 22.4233 19.6507C22.9825 18.2289 24.3353 17.1899 25.9634 17.1133ZM36.5919 14.4438C38.4695 13.272 40.9399 13.8468 42.1093 15.7262C42.3654 16.1377 42.2393 16.6788 41.8278 16.9349C41.4163 17.1909 40.8751 17.0649 40.6191 16.6534C39.9618 15.5971 38.5749 15.2752 37.5212 15.9327C36.7464 16.4163 36.3648 17.2967 36.4811 18.1521C36.5463 18.6324 36.2099 19.0746 35.7297 19.1398C35.2494 19.2051 34.8072 18.8687 34.742 18.3884C34.5362 16.8747 35.2091 15.3067 36.5919 14.4438ZM18.5497 12.3265C20.4158 11.2267 22.8275 11.8124 23.9786 13.6624C24.2347 14.0739 24.1087 14.6152 23.6972 14.8712C23.2857 15.1273 22.7444 15.0012 22.4884 14.5897C21.831 13.5333 20.4442 13.2116 19.3905 13.8691H19.3904C18.6155 14.3527 18.234 15.233 18.3502 16.0884C18.4155 16.5686 18.0791 17.0109 17.5988 17.0762C17.1186 17.1414 16.6764 16.805 16.6111 16.3248C16.4054 14.8111 17.0784 13.2431 18.4613 12.3801L18.5497 12.3265ZM27.5183 10.01C28.2365 8.71924 29.6664 7.8968 31.2369 8.03301L31.2367 8.03312C33.3685 8.21779 34.9451 10.0975 34.7608 12.2293C34.7191 12.7121 34.2938 13.0697 33.8109 13.028C33.3281 12.9863 32.9705 12.561 33.0122 12.0781C33.1116 10.9279 32.2759 9.91455 31.1396 9.78698L31.0852 9.78161C30.2299 9.70743 29.4468 10.1538 29.052 10.8634C28.8163 11.2869 28.282 11.4392 27.8585 11.2035C27.435 10.9679 27.2827 10.4335 27.5183 10.01Z" fill="#5F7C6A"/>
</svg>
