<svg width="61" height="53" viewBox="0 0 61 53" fill="none" xmlns="http://www.w3.org/2000/svg">
<path d="M30.1049 52.014C24.9637 52.014 21.3679 50.7654 17.5609 49.4435C13.1505 47.9121 8.59001 46.3285 0.881979 46.3285C0.648064 46.3285 0.423729 46.2356 0.258326 46.0702C0.0929225 45.9048 0 45.6804 0 45.4465C0 45.2126 0.0929225 44.9883 0.258326 44.8229C0.423729 44.6575 0.648064 44.5645 0.881979 44.5645C8.88753 44.5645 13.8029 46.2713 18.1395 47.7771C25.2612 50.2499 27.6139 50.2499 30.1049 50.2499C34.9485 50.2499 38.4077 49.0487 42.0702 47.7771C46.4069 46.2712 51.3223 44.5645 59.3278 44.5645C59.815 44.5645 60.2098 44.9594 60.2098 45.4465C60.2098 45.9336 59.815 46.3285 59.3278 46.3285C51.6198 46.3285 47.0592 47.9121 42.6489 49.4434C38.8419 50.7654 35.2461 52.014 30.1049 52.014ZM39.1312 45.2215C34.4275 45.2215 31.2939 43.6473 30.1049 42.9258C28.9159 43.6473 25.7823 45.2215 21.0786 45.2215C14.7786 45.2215 8.62505 43.0078 1.12623 38.0436C0.998326 37.959 0.894719 37.8424 0.825636 37.7054C0.756553 37.5685 0.724384 37.4159 0.732304 37.2627C0.740224 37.1095 0.78796 36.961 0.870798 36.8319C0.953636 36.7028 1.06871 36.5976 1.20467 36.5265C3.06941 35.5522 5.08526 34.6474 7.08841 33.8843C5.95407 32.5373 4.89769 31.0492 3.95056 29.4574C3.83351 29.2565 3.80052 29.0175 3.85877 28.7924C3.91702 28.5673 4.0618 28.3743 4.26162 28.2554C4.46143 28.1365 4.70011 28.1014 4.92573 28.1575C5.15135 28.2137 5.34566 28.3567 5.46639 28.5554C7.2574 31.5657 9.45211 34.1752 11.8132 36.102C15.3714 39.0056 20.574 40.5908 27.6687 40.9242C25.206 38.6836 23.3569 36.5442 22.0481 34.4261C21.9251 34.2271 21.8862 33.9874 21.94 33.7598C21.9938 33.5321 22.1358 33.3351 22.3348 33.2122C22.5338 33.0892 22.7735 33.0503 23.0011 33.1041C23.2288 33.1579 23.4258 33.2999 23.5487 33.4989C24.8212 35.5583 26.6614 37.658 29.1471 39.8823C28.9918 37.5662 28.6042 35.5627 27.9732 33.7991C27.0124 31.114 25.4887 28.9464 23.3149 27.1727C22.6814 26.6558 22.0073 26.1602 21.3016 25.6872C21.2977 25.8423 21.2958 25.9965 21.2958 26.15C21.2958 27.4285 21.4984 28.7142 21.898 29.9714C21.9331 30.0818 21.9461 30.198 21.9363 30.3134C21.9265 30.4288 21.894 30.5411 21.8408 30.644C21.7876 30.7468 21.7146 30.8382 21.626 30.9129C21.5375 30.9875 21.4351 31.044 21.3247 31.0791C21.2144 31.1142 21.0982 31.1272 20.9828 31.1174C20.8674 31.1075 20.755 31.0751 20.6522 31.0218C20.5493 30.9686 20.4579 30.8956 20.3833 30.8071C20.3086 30.7185 20.2522 30.6162 20.2171 30.5058C19.7625 29.0756 19.532 27.6101 19.532 26.15C19.532 25.6467 19.5511 25.1357 19.5891 24.6182C13.9824 21.353 6.94376 19.3681 1.85862 18.9655C2.11346 20.8855 2.78364 23.1077 3.78792 25.3366C3.83551 25.4422 3.86182 25.5561 3.86537 25.6719C3.86892 25.7876 3.84963 25.903 3.8086 26.0113C3.76757 26.1196 3.70561 26.2188 3.62626 26.3031C3.54691 26.3875 3.45171 26.4554 3.34611 26.503C3.24052 26.5506 3.12658 26.577 3.0108 26.5805C2.89502 26.5841 2.77967 26.5648 2.67135 26.5238C2.56303 26.4827 2.46385 26.4208 2.37948 26.3414C2.29512 26.262 2.22722 26.1668 2.17966 26.0612C0.89221 23.2041 0.139 20.4425 0.00164636 18.0752C-0.00551741 17.9524 0.0130945 17.8294 0.0562858 17.7142C0.0994772 17.599 0.166292 17.4941 0.252437 17.4063C0.338581 17.3185 0.442149 17.2496 0.556483 17.2042C0.670817 17.1588 0.793388 17.1378 0.916318 17.1426C4.13237 17.267 7.90641 17.9992 11.6736 19.2208C11.7413 15.8697 12.3581 12.7275 13.4401 10.2734C13.5315 10.0662 13.6991 9.902 13.9083 9.81495C14.1174 9.72791 14.352 9.72465 14.5635 9.80585C17.0982 10.7798 19.8904 12.3596 22.5035 14.2918C22.5213 14.2548 22.5389 14.2179 22.5569 14.1807C24.3919 10.3702 26.8636 6.96082 29.5163 4.58065C29.6782 4.43543 29.8879 4.35511 30.1054 4.35511C30.3228 4.35511 30.5326 4.43543 30.6944 4.58065C31.237 5.06762 31.7823 5.61009 32.3148 6.19326C32.4685 6.36662 32.5478 6.5935 32.5356 6.82488C32.5235 7.05626 32.4207 7.27355 32.2496 7.4298C32.0786 7.58605 31.8529 7.66872 31.6213 7.65994C31.3898 7.65116 31.171 7.55163 31.0123 7.38287C30.7188 7.06122 30.4161 6.74817 30.1045 6.44409C27.8429 8.6374 25.7454 11.6252 24.1462 14.946C22.7139 17.9203 21.8003 20.8963 21.4537 23.6838C22.5326 24.3604 23.5289 25.07 24.4307 25.8058C27.6234 28.411 29.2747 31.6291 30.1216 34.7694C31.1352 31.0274 33.0106 28.0659 35.7801 25.8058C35.8699 25.7325 35.9732 25.6777 36.0841 25.6444C36.195 25.6111 36.3114 25.5999 36.4267 25.6116C36.5419 25.6233 36.6537 25.6575 36.7557 25.7124C36.8577 25.7673 36.9479 25.8417 37.0211 25.9315C37.0944 26.0212 37.1492 26.1245 37.1826 26.2354C37.2159 26.3464 37.227 26.4628 37.2154 26.578C37.2037 26.6932 37.1695 26.805 37.1146 26.9071C37.0597 27.0091 36.9853 27.0993 36.8955 27.1725C33.3946 30.0294 31.4789 34.1966 31.0692 39.8728C36.3445 35.1223 38.9147 30.6202 38.9147 26.1499C38.9147 21.3517 36.7822 15.2913 33.3494 10.3339C33.2162 10.1415 33.1649 9.90421 33.2067 9.67406C33.2485 9.4439 33.3801 9.23979 33.5724 9.10661C33.7647 8.97344 34.002 8.92211 34.2322 8.96392C34.4623 9.00574 34.6664 9.13727 34.7996 9.32958C35.8927 10.9094 36.858 12.5739 37.6863 14.3074C40.3053 12.3679 43.1055 10.7824 45.6472 9.80573C45.8587 9.72447 46.0933 9.7277 46.3025 9.81475C46.5117 9.9018 46.6793 10.066 46.7707 10.2733C47.8556 12.734 48.4729 15.8866 48.5376 19.2476C52.2582 18.0341 56.0523 17.2679 59.2944 17.1425C59.4173 17.138 59.5398 17.1591 59.6541 17.2045C59.7684 17.25 59.872 17.3187 59.9582 17.4063C60.0444 17.4941 60.1112 17.599 60.1544 17.7141C60.1976 17.8293 60.2162 17.9522 60.2091 18.075C60.0354 21.0648 58.9182 24.6244 57.0634 28.0979C55.9388 30.2039 54.6142 32.156 53.1405 33.8908C55.1376 34.6527 57.1471 35.5548 59.0061 36.5262C59.142 36.5972 59.257 36.7025 59.3398 36.8316C59.4226 36.9607 59.4703 37.1092 59.4782 37.2624C59.4862 37.4156 59.454 37.5681 59.3849 37.7051C59.3158 37.842 59.2123 37.9586 59.0844 38.0433C57.858 38.8552 56.7132 39.5663 55.5847 40.2173C55.4844 40.2752 55.3736 40.3127 55.2588 40.3278C55.1439 40.3429 55.0273 40.3352 54.9154 40.3052C54.6895 40.2446 54.4969 40.0967 54.38 39.8941C54.2631 39.6915 54.2314 39.4507 54.2921 39.2248C54.3527 38.9989 54.5006 38.8063 54.7032 38.6894C55.4198 38.2754 56.1278 37.8468 56.8269 37.4038C55.2094 36.6199 53.5539 35.917 51.8666 35.2976C51.1118 36.0792 50.3251 36.805 49.5126 37.4681C44.9618 41.1816 38.8792 42.3077 33.7622 42.6317C35.1432 43.08 36.9526 43.457 39.1319 43.457C43.0608 43.457 47.0231 42.4916 51.2451 40.5055C51.4564 40.4085 51.6975 40.3988 51.9159 40.4786C52.1344 40.5584 52.3124 40.7212 52.4114 40.9316C52.5104 41.142 52.5222 41.383 52.4444 41.6022C52.3666 41.8213 52.2054 42.0008 51.9959 42.1017C47.5333 44.2013 43.3254 45.2215 39.1312 45.2215ZM3.38445 37.404C9.99753 41.5823 15.5028 43.4576 21.0786 43.4576C23.2733 43.4576 25.0929 43.0753 26.4776 42.6228C19.5482 42.1576 14.364 40.4602 10.6982 37.4687C9.8951 36.8133 9.11096 36.0854 8.35387 35.2946C6.66337 35.9147 5.00483 36.6187 3.38445 37.404ZM40.6191 24.6372C40.6582 25.1502 40.6779 25.6548 40.6779 26.1501C40.6779 31.0614 38.0081 35.9121 32.5315 40.9269C39.7026 40.6035 44.7828 39.0509 48.3964 36.102C54.1441 31.4118 57.6863 24.0319 58.3521 18.9647C52.8096 19.3954 45.8652 21.6068 40.6191 24.6372ZM38.4229 15.959C39.3699 18.2356 40.0413 20.5373 40.3935 22.7393C42.3638 21.6535 44.5391 20.6781 46.7787 19.8569C46.7809 16.8684 46.3254 14.049 45.4778 11.7782C43.1963 12.7537 40.7325 14.2126 38.4229 15.959ZM13.4311 19.8271C15.7318 20.6678 17.877 21.6404 19.809 22.7139C20.1524 20.5193 20.8111 18.2366 21.7657 15.943C19.4622 14.2035 17.0064 12.7506 14.732 11.7782C13.8873 14.0415 13.432 16.8496 13.4311 19.8271ZM30.1049 1.88156C29.5862 1.88156 29.1641 1.4595 29.1641 0.940778C29.1641 0.422056 29.5862 0 30.1049 0C30.6236 0 31.0457 0.422056 31.0457 0.940778C31.0457 1.4595 30.6236 1.88156 30.1049 1.88156Z" fill="#5F7C6A"/>
</svg>
