<svg width="47" height="47" viewBox="0 0 47 47" fill="none" xmlns="http://www.w3.org/2000/svg">
<path d="M13.4957 46.3944C13.5499 46.5463 13.6498 46.6778 13.7817 46.7708C13.9136 46.8637 14.071 46.9136 14.2323 46.9136C14.3218 46.9134 14.4107 46.8981 14.4951 46.8682L42.8489 36.7575C43.0434 36.6869 43.202 36.5421 43.29 36.3548C43.3779 36.1674 43.388 35.9529 43.3181 35.7581L40.2997 27.3052L44.9915 13.3292L45.2214 12.645L46.2888 9.46398V9.4585C46.4435 9.03811 46.426 8.5736 46.24 8.16605C46.054 7.7585 45.7146 7.44089 45.2957 7.28231L41.7159 6.08044C41.519 6.015 41.311 5.98938 41.1042 6.00509C40.8973 6.0208 40.6956 6.07751 40.5109 6.17193C40.0853 6.38825 39.7626 6.76407 39.6132 7.21741L38.5481 10.3961V10.4015L37.6176 13.1736V13.1799L36.4767 16.5736L32.3589 5.0287C32.3249 4.92571 32.2695 4.8311 32.1963 4.75111C32.1266 4.67351 32.0421 4.61074 31.9476 4.56657L22.4695 0.0742085C22.4562 0.0679528 22.4421 0.0695167 22.4288 0.064043C22.2507 -0.013334 22.05 -0.0208708 21.8666 0.0429302L0.515195 7.66391C0.320675 7.7345 0.162069 7.87932 0.0741272 8.06664C-0.0138151 8.25396 -0.0239225 8.4685 0.0460192 8.66325L13.4957 46.3944ZM38.8468 14.4122L42.5612 15.6594L37.5801 30.5042L34.9105 32.3027L33.8665 29.2601L38.8468 14.4122ZM39.7766 11.6394L43.4917 12.8858L43.0585 14.1761L39.3442 12.9296L39.7766 11.6394ZM41.0989 7.71317C41.1082 7.68139 41.1237 7.65176 41.1445 7.62599C41.1653 7.60022 41.191 7.57883 41.2201 7.56303L44.7944 8.76021C44.8149 8.79081 44.8272 8.8261 44.8302 8.86277C44.8332 8.89943 44.8268 8.93626 44.8116 8.96978L43.9921 11.4056L40.2771 10.1615L41.0989 7.71317ZM29.5783 5.17493L25.1 6.77247L23.5048 2.29419L29.5783 5.17493ZM21.6586 1.77653L23.8911 8.03221C23.9453 8.18405 24.045 8.31544 24.1768 8.40838C24.3085 8.50133 24.4657 8.55129 24.6269 8.55143C24.7164 8.55118 24.8052 8.53584 24.8897 8.50608L31.1453 6.27437L35.6729 18.9679L32.3026 29.0145C32.2479 29.1774 32.2479 29.3537 32.3026 29.5165L33.7649 33.7767C33.8038 33.8902 33.8683 33.9933 33.9535 34.0779C34.0386 34.1625 34.1421 34.2263 34.2559 34.2645C34.3697 34.3027 34.4907 34.3142 34.6096 34.298C34.7286 34.2819 34.8422 34.2386 34.9417 34.1716L38.6748 31.6521C38.8172 31.5562 38.9241 31.416 38.979 31.2533L39.4998 29.7019L41.5868 35.547L14.7085 45.1323L1.77415 8.87438L21.6586 1.77653Z" fill="#5F7C6A"/>
<path d="M12.3714 8.58438C12.4652 8.58449 12.5582 8.56753 12.6459 8.53433L13.1823 8.33415C13.2806 8.29982 13.371 8.24621 13.4483 8.17646C13.5256 8.10671 13.5882 8.02223 13.6324 7.92797C13.6766 7.83371 13.7015 7.73157 13.7058 7.62754C13.71 7.52352 13.6934 7.4197 13.6569 7.32217C13.6205 7.22465 13.5649 7.13539 13.4935 7.05962C13.4221 6.98385 13.3363 6.92311 13.2411 6.88095C13.1459 6.83879 13.0432 6.81606 12.9392 6.8141C12.8351 6.81214 12.7316 6.83099 12.6349 6.86954L12.0985 7.06972C11.9267 7.13377 11.7828 7.25617 11.6921 7.41551C11.6014 7.57486 11.5695 7.76102 11.6021 7.94146C11.6348 8.1219 11.7297 8.28515 11.8705 8.40266C12.0112 8.52018 12.188 8.5845 12.3714 8.58438ZM10.3023 8.57656C10.2296 8.38235 10.0828 8.22497 9.89403 8.13903C9.7053 8.0531 9.49016 8.04565 9.29594 8.11833L8.75952 8.31929C8.58764 8.38337 8.44376 8.50583 8.35305 8.66526C8.26233 8.82468 8.23054 9.01093 8.26325 9.19142C8.29595 9.37191 8.39107 9.53516 8.53196 9.65261C8.67285 9.77007 8.85055 9.83426 9.03398 9.83395C9.1275 9.83412 9.22026 9.81716 9.30767 9.7839L9.8441 9.58294C10.0383 9.51024 10.1957 9.36337 10.2816 9.17464C10.3676 8.98591 10.375 8.77078 10.3023 8.57656ZM5.95776 9.3679L5.42133 9.56886C5.32304 9.60319 5.2326 9.65681 5.15531 9.72656C5.07801 9.7963 5.01543 9.88079 4.97122 9.97504C4.92701 10.0693 4.90207 10.1714 4.89786 10.2755C4.89365 10.3795 4.91025 10.4833 4.9467 10.5808C4.98315 10.6784 5.0387 10.7676 5.11011 10.8434C5.18151 10.9192 5.26733 10.9799 5.36252 11.0221C5.45771 11.0642 5.56037 11.087 5.66446 11.0889C5.76856 11.0909 5.87199 11.072 5.9687 11.0335L6.50435 10.8325C6.60264 10.7982 6.69308 10.7446 6.77037 10.6748C6.84767 10.6051 6.91025 10.5206 6.95446 10.4263C6.99867 10.3321 7.02361 10.2299 7.02782 10.1259C7.03203 10.0219 7.01543 9.91806 6.97898 9.82053C6.94253 9.72301 6.88698 9.63375 6.81557 9.55798C6.74417 9.48221 6.65835 9.42147 6.56316 9.37931C6.46796 9.33715 6.36531 9.31442 6.26122 9.31246C6.15712 9.3105 6.05369 9.32935 5.95697 9.3679H5.95776ZM16.3531 17.5902C16.4425 17.5902 16.5311 17.5746 16.6151 17.5441L29.189 13.0689C29.3709 12.99 29.5161 12.845 29.5951 12.6631C29.6742 12.4812 29.6811 12.2761 29.6147 12.0893C29.5482 11.9025 29.4132 11.7479 29.237 11.6568C29.0609 11.5658 28.8567 11.545 28.6659 11.5988L16.092 16.0748C15.9184 16.1366 15.7722 16.2578 15.6793 16.4168C15.5863 16.5759 15.5525 16.7627 15.5838 16.9443C15.6151 17.1259 15.7096 17.2906 15.8505 17.4093C15.9914 17.528 16.1697 17.5932 16.3539 17.5933L16.3531 17.5902ZM14.5194 17.4635C14.4499 17.2682 14.3057 17.1085 14.1184 17.0195C13.9312 16.9304 13.7162 16.9194 13.5209 16.9889L10.142 18.1923C9.96845 18.2542 9.82229 18.3753 9.72933 18.5344C9.63636 18.6935 9.60256 18.8803 9.63388 19.0618C9.6652 19.2434 9.75964 19.4081 9.90053 19.5268C10.0414 19.6456 10.2197 19.7108 10.404 19.7109C10.4931 19.7109 10.5815 19.6952 10.6652 19.6647L14.0432 18.4621C14.1401 18.4278 14.2292 18.3748 14.3056 18.3061C14.382 18.2373 14.444 18.1542 14.4883 18.0615C14.5325 17.9688 14.558 17.8682 14.5633 17.7656C14.5687 17.663 14.5538 17.5604 14.5194 17.4635ZM31.025 15.9035C30.9906 15.8067 30.9375 15.7176 30.8686 15.6414C30.7997 15.5651 30.7165 15.5032 30.6237 15.4591C30.5309 15.415 30.4303 15.3897 30.3277 15.3845C30.2251 15.3793 30.1225 15.3944 30.0257 15.4289L11.5065 22.0208C11.4078 22.0536 11.3167 22.1059 11.2384 22.1744C11.1602 22.2429 11.0964 22.3264 11.0508 22.4199C11.0052 22.5134 10.9787 22.615 10.9728 22.7189C10.967 22.8227 10.9819 22.9267 11.0168 23.0247C11.0517 23.1227 11.1057 23.2128 11.1758 23.2896C11.2459 23.3665 11.3306 23.4286 11.425 23.4723C11.5194 23.516 11.6216 23.5404 11.7256 23.5442C11.8295 23.5479 11.9332 23.5308 12.0305 23.494L30.5496 16.9021C30.6464 16.8677 30.7355 16.8147 30.8117 16.7459C30.888 16.6771 30.95 16.594 30.9942 16.5013C31.0383 16.4086 31.0638 16.308 31.0691 16.2055C31.0744 16.1029 31.0594 16.0003 31.025 15.9035ZM27.7682 21.3741C27.8223 21.5262 27.9221 21.6579 28.054 21.751C28.1859 21.8441 28.3433 21.8941 28.5048 21.8941C28.5941 21.8941 28.6828 21.8785 28.7667 21.848L31.9133 20.7282C32.012 20.6953 32.1032 20.6431 32.1814 20.5746C32.2597 20.5061 32.3235 20.4226 32.3691 20.3291C32.4147 20.2356 32.4412 20.134 32.447 20.0301C32.4529 19.9263 32.4379 19.8223 32.4031 19.7243C32.3682 19.6263 32.3142 19.5362 32.2441 19.4593C32.174 19.3825 32.0892 19.3204 31.9948 19.2767C31.9004 19.233 31.7983 19.2086 31.6943 19.2048C31.5904 19.2011 31.4867 19.2182 31.3894 19.255L28.2428 20.3755C28.0475 20.4451 27.8878 20.5893 27.7987 20.7766C27.7097 20.9638 27.6987 21.1787 27.7682 21.3741ZM26.6703 21.7643C26.6008 21.569 26.4565 21.4092 26.2693 21.3202C26.082 21.2312 25.8671 21.2202 25.6717 21.2897L12.8703 25.8477C12.7716 25.8806 12.6804 25.9328 12.6022 26.0013C12.5239 26.0698 12.4601 26.1533 12.4145 26.2468C12.3689 26.3403 12.3424 26.4419 12.3366 26.5458C12.3307 26.6496 12.3457 26.7536 12.3805 26.8516C12.4154 26.9496 12.4695 27.0397 12.5396 27.1166C12.6097 27.1934 12.6944 27.2555 12.7888 27.2992C12.8832 27.3429 12.9853 27.3673 13.0893 27.3711C13.1933 27.3748 13.2969 27.3577 13.3942 27.3209L26.1988 22.7629C26.3935 22.6927 26.5525 22.5482 26.6409 22.361C26.7293 22.1739 26.7399 21.9593 26.6703 21.7643ZM28.1662 26.3794C28.2649 26.3466 28.356 26.2943 28.4343 26.2258C28.5126 26.1573 28.5764 26.0738 28.622 25.9803C28.6676 25.8869 28.6941 25.7852 28.6999 25.6813C28.7057 25.5775 28.6908 25.4735 28.6559 25.3755C28.6211 25.2775 28.567 25.1874 28.4969 25.1106C28.4268 25.0337 28.3421 24.9716 28.2477 24.9279C28.1533 24.8842 28.0511 24.8598 27.9472 24.8561C27.8432 24.8523 27.7396 24.8694 27.6423 24.9062L14.2325 29.6762C14.1338 29.709 14.0426 29.7613 13.9643 29.8298C13.8861 29.8983 13.8223 29.9818 13.7767 30.0752C13.7311 30.1687 13.7046 30.2704 13.6987 30.3743C13.6929 30.4781 13.7079 30.5821 13.7427 30.6801C13.7776 30.7781 13.8316 30.8682 13.9017 30.945C13.9718 31.0219 14.0566 31.084 14.151 31.1277C14.2453 31.1714 14.3475 31.1958 14.4515 31.1995C14.5554 31.2033 14.6591 31.1862 14.7564 31.1494L28.1662 26.3794Z" fill="#5F7C6A"/>
</svg>
