<svg width="45" height="47" viewBox="0 0 45 47" fill="none" xmlns="http://www.w3.org/2000/svg">
<path fill-rule="evenodd" clip-rule="evenodd" d="M9.6251 41.4546C9.486 41.1769 9.28081 40.946 9.00831 40.7587L5.26983 38.1899C3.97272 37.2989 3.35526 35.3716 2.8844 33.9392L0.140464 25.6173L0.140369 25.6169C-0.188649 24.617 0.0852801 23.4595 0.706053 22.6783C1.15549 22.1128 1.77768 21.7467 2.46284 21.7131C3.46089 21.6642 4.74785 22.3506 5.74145 24.697L7.8849 29.7542C8.51231 29.6593 9.17594 29.7985 9.72987 30.1959L9.73015 30.1961L12.9557 32.5133C14.2978 32.8947 15.1831 33.377 15.8081 33.96C16.7731 34.8602 17.1351 36.0179 17.4995 37.5627C17.8061 38.8626 18.127 40.1588 18.4512 41.4546H18.8117C19.6692 41.4546 20.3695 42.1549 20.3695 43.0116L20.372 45.2789V45.2797C20.372 45.7088 20.2203 46.0754 19.9209 46.3793L19.914 46.3863C19.6102 46.6856 19.2431 46.84 18.8143 46.84H18.8137C15.7401 46.8375 12.6639 46.8375 9.5903 46.8375C8.73229 46.8375 8.03254 46.1403 8.03254 45.283L8.02997 43.0131V43.0123C8.02997 42.5871 8.18121 42.2196 8.48112 41.9153L8.48453 41.9118C8.78947 41.6068 9.15726 41.4546 9.58774 41.4546H9.6251ZM17.0829 41.4546C16.7847 40.2602 16.49 39.0654 16.2075 37.8673C15.9133 36.6201 15.6819 35.6576 14.9027 34.9307C14.3827 34.4457 13.6268 34.0736 12.4884 33.761C12.4124 33.7403 12.3408 33.7061 12.2769 33.6601L8.95606 31.2744C8.42375 30.8926 7.6764 31.0138 7.29618 31.5461L7.29485 31.548C6.91283 32.0789 7.03543 32.8263 7.56632 33.2083L11.9796 36.3798C12.1225 36.4826 12.2187 36.6379 12.2471 36.8116C12.2756 36.9853 12.2339 37.1632 12.1312 37.3062C12.0284 37.4491 11.8732 37.5453 11.6995 37.5737C11.5258 37.6021 11.3479 37.5604 11.205 37.4578L6.79137 34.2861L6.79099 34.2859C5.66806 33.4777 5.40921 31.8967 6.21668 30.7735C6.3457 30.5929 6.49825 30.4303 6.67029 30.29L4.51915 25.2148C4.15496 24.3547 3.76848 23.7702 3.37043 23.4123C3.07859 23.1499 2.79603 23.0259 2.52779 23.0389C2.2166 23.0542 1.9494 23.2474 1.74526 23.5042C1.3859 23.9564 1.21086 24.6232 1.40126 25.202L4.14519 33.5238L4.14538 33.5244C4.35322 34.1565 4.57965 34.9051 4.89918 35.5933C5.17795 36.1937 5.52204 36.7526 6.02145 37.0958L9.76012 39.6646C10.4096 40.111 10.8343 40.7034 11.0394 41.4546H17.0829ZM18.8117 42.782H9.58774C9.5243 42.782 9.47007 42.8043 9.42332 42.8503C9.40222 42.8716 9.38553 42.8969 9.37422 42.9247C9.36291 42.9525 9.35721 42.9822 9.35743 43.0122L9.35999 45.2815V45.2823C9.35999 45.4085 9.464 45.51 9.5903 45.51C12.6641 45.51 15.7405 45.51 18.8143 45.5126C18.8783 45.5126 18.9324 45.4881 18.9799 45.4429C19.0222 45.3992 19.0454 45.3405 19.0446 45.2797L19.042 43.0131V43.0123C19.0419 42.9513 19.0176 42.8928 18.9744 42.8496C18.9312 42.8065 18.8728 42.7822 18.8117 42.782ZM35.3285 41.4546H35.3684C35.7962 41.4546 36.1696 41.6084 36.4715 41.9142C36.7752 42.2191 36.9263 42.5869 36.9263 43.0123V43.0131L36.9236 45.2823C36.9236 46.1403 36.2239 46.8375 35.3659 46.8375C32.2897 46.8375 29.2161 46.8375 26.1399 46.84H26.1393C25.7127 46.84 25.3396 46.6837 25.0388 46.3828C24.7338 46.0779 24.5816 45.7102 24.5816 45.2797V45.2789L24.5841 43.0123C24.5841 42.1549 25.2845 41.4546 26.1419 41.4546H26.5031C26.8278 40.159 27.149 38.8631 27.4539 37.5634L27.4541 37.5626C27.8185 36.0177 28.1815 34.8601 29.1474 33.9598C29.7728 33.3769 30.6585 32.8947 32.0003 32.5134L35.2255 30.1965C35.7779 29.799 36.4411 29.6594 37.0687 29.7541L39.2121 24.6972C40.2058 22.3506 41.4927 21.6642 42.4908 21.7131C43.1759 21.7467 43.7981 22.1128 44.2476 22.6783C44.8683 23.4595 45.1423 24.617 44.8132 25.6169L42.0718 33.9393L42.0715 33.9401C41.5979 35.3722 40.9806 37.2991 39.6839 38.1899L35.9453 40.7587C35.6728 40.946 35.4676 41.1769 35.3285 41.4546ZM35.3684 42.782H26.1419C26.0809 42.7822 26.0224 42.8065 25.9792 42.8496C25.936 42.8928 25.9117 42.9513 25.9116 43.0123V43.0131L25.909 45.2797C25.909 45.3439 25.932 45.3987 25.9774 45.4442C25.9983 45.466 26.0235 45.4833 26.0513 45.495C26.0792 45.5068 26.1091 45.5127 26.1393 45.5126C29.2157 45.51 32.2895 45.51 35.3659 45.51C35.4922 45.51 35.5962 45.4085 35.5962 45.2823V45.2815L35.5988 43.0122C35.5987 42.9494 35.5754 42.8954 35.5304 42.8504L35.527 42.8469C35.4837 42.8031 35.4298 42.782 35.3684 42.782ZM33.9143 41.4546C34.1198 40.7028 34.5443 40.1108 35.1935 39.6646L38.9322 37.0958C39.4317 36.7526 39.7758 36.1935 40.0549 35.593C40.3747 34.9048 40.6019 34.1561 40.811 33.5239L43.5523 25.202C43.7427 24.6233 43.5677 23.9564 43.2084 23.5042C43.0042 23.2474 42.737 23.0542 42.4258 23.0389C42.1576 23.0259 41.875 23.1499 41.5832 23.4123C41.1851 23.7702 40.7986 24.3547 40.4345 25.2148L38.2837 30.2891C38.4564 30.4294 38.6095 30.5922 38.7391 30.773C39.5471 31.8964 39.2886 33.4781 38.1622 34.2861L33.7487 37.4578C33.6057 37.5604 33.4278 37.6021 33.2541 37.5737C33.0805 37.5453 32.9252 37.4491 32.8224 37.3062C32.7197 37.1632 32.678 36.9853 32.7065 36.8116C32.7349 36.6379 32.8311 36.4826 32.974 36.3798L37.3876 33.2082L37.3881 33.2078C37.9205 32.8259 38.0432 32.0787 37.6613 31.548L37.6607 31.5471C37.2788 31.0148 36.5317 30.8919 36.001 31.2739L36.0005 31.2743L32.6793 33.6601C32.6154 33.7061 32.5437 33.7403 32.4678 33.761C31.3293 34.0736 30.5729 34.4458 30.0525 34.9309C29.2727 35.6577 29.0403 36.62 28.7462 37.867C28.465 39.0652 28.1702 40.2601 27.8716 41.4546H33.9143ZM7.82175 4.02938C11.7721 3.7162 15.2122 1.9815 17.8137 0.123642C17.9262 0.0432258 18.0611 -2.85833e-06 18.1995 1.41752e-10H26.7541C26.8925 -2.85833e-06 27.0274 0.0432258 27.1399 0.123642C29.7414 1.9815 33.1816 3.7162 37.1319 4.02938C37.2983 4.04257 37.4536 4.118 37.5669 4.24062C37.6802 4.36325 37.7431 4.52407 37.7431 4.69102V17.4496C37.7431 21.7376 35.5869 25.6918 32.5976 28.7831C29.6381 31.8436 25.8695 34.0526 22.6487 34.9164C22.5361 34.9466 22.4174 34.9465 22.3048 34.9163C19.0851 34.0526 15.3165 31.8437 12.3568 28.7831C9.36719 25.6918 7.21046 21.7376 7.21046 17.4496V4.69102C7.21047 4.52407 7.27339 4.36325 7.38668 4.24062C7.49998 4.118 7.65532 4.04257 7.82175 4.02938ZM8.53791 5.2934V17.4496C8.53791 21.395 10.5603 25.016 13.311 27.8603C16.0389 30.6812 19.4909 32.7436 22.4769 33.5869C25.4637 32.7436 28.9157 30.6812 31.6433 27.8603C34.3938 25.016 36.4157 21.395 36.4157 17.4496V5.2934C32.5466 4.84974 29.1583 3.16426 26.543 1.32745H18.4106C15.7953 3.16426 12.4071 4.84974 8.53791 5.2934ZM22.4768 6.47682C28.0763 6.47682 32.6223 11.0229 32.6223 16.6223C32.6223 22.2217 28.0763 26.7678 22.4768 26.7678C16.8773 26.7678 12.3313 22.2217 12.3313 16.6223C12.3313 11.0229 16.8773 6.47682 22.4768 6.47682ZM22.4768 7.80427C17.61 7.80427 13.6587 11.7554 13.6587 16.6223C13.6587 21.4891 17.61 25.4404 22.4768 25.4404C27.3436 25.4404 31.2949 21.4891 31.2949 16.6223C31.2949 11.7554 27.3436 7.80427 22.4768 7.80427ZM21.6806 16.5907L25.3032 12.9681C25.9813 12.2901 27.0822 12.2901 27.7602 12.9681C28.4383 13.6462 28.4383 14.7471 27.7602 15.4252L22.9092 20.2762C22.2307 20.9547 21.1307 20.9547 20.4522 20.2762L17.1934 17.0174C16.5153 16.3394 16.5153 15.2385 17.1934 14.5604C17.8714 13.8824 18.9723 13.8824 19.6504 14.5604L21.6806 16.5907ZM18.132 16.0788L21.3908 19.3376C21.4677 19.4145 21.5719 19.4577 21.6807 19.4577C21.7894 19.4577 21.8937 19.4145 21.9706 19.3376L26.8216 14.4866C26.8985 14.4096 26.9416 14.3054 26.9416 14.1967C26.9416 14.0879 26.8985 13.9837 26.8216 13.9067C26.7447 13.8299 26.6404 13.7868 26.5317 13.7868C26.423 13.7868 26.3188 13.8299 26.2418 13.9067L22.15 17.9986C22.0883 18.0602 22.0152 18.1091 21.9346 18.1425C21.8541 18.1758 21.7678 18.193 21.6806 18.193C21.6807 18.193 21.4497 18.237 21.2106 17.9979L21.1414 17.9286L18.7118 15.499C18.6349 15.4222 18.5306 15.3791 18.4219 15.3791C18.3132 15.3791 18.2089 15.4222 18.132 15.499C18.0551 15.5759 18.012 15.6802 18.012 15.7889C18.012 15.8976 18.0551 16.0019 18.132 16.0788Z" fill="#5F7C6A"/>
</svg>
