<svg width="56" height="56" viewBox="0 0 56 56" fill="none" xmlns="http://www.w3.org/2000/svg">
<path fill-rule="evenodd" clip-rule="evenodd" d="M27.637 52.1059C21.397 56.8809 12.5842 56.7055 6.53254 51.5806C6.36074 51.4351 6.25001 51.2302 6.22236 51.0068C6.19471 50.7834 6.25218 50.5577 6.38334 50.3747C6.92242 49.622 7.5223 48.9147 8.17696 48.26C9.46203 46.975 10.903 45.941 12.439 45.1578C10.7037 42.7478 9.58928 39.8608 9.32985 36.7312C9.31125 36.5068 9.37778 36.2837 9.51619 36.1061C9.65461 35.9286 9.85478 35.8097 10.0769 35.773C10.9903 35.622 11.9146 35.5461 12.8405 35.546C16.1576 35.546 19.2506 36.5043 21.858 38.1593C21.2591 33.0791 22.9834 27.8248 26.8629 24.0709C27.0246 23.9144 27.2394 23.8245 27.4645 23.8191C27.6895 23.8136 27.9084 23.8931 28.0775 24.0417C28.7731 24.6527 29.4175 25.3197 30.0042 26.0359C32.8937 29.5639 34.1137 33.912 33.7596 38.1233C36.355 36.4904 39.4272 35.546 42.7203 35.546C43.6616 35.546 44.5846 35.6244 45.4839 35.773C45.706 35.8097 45.9062 35.9286 46.0446 36.1061C46.183 36.2837 46.2496 36.5068 46.231 36.7312C45.9715 39.8608 44.8571 42.7478 43.1218 45.1578C44.6578 45.941 46.0988 46.975 47.3838 48.26C48.0385 48.9147 48.6384 49.622 49.1775 50.3747C49.3086 50.5577 49.3661 50.7834 49.3384 51.0068C49.3108 51.2302 49.2001 51.4351 49.0283 51.5806C42.9662 56.7144 34.1335 56.8815 27.8915 52.0812C27.8068 52.09 27.722 52.0983 27.637 52.1059ZM13.5911 46.5876C12.0918 47.3051 10.6866 48.2851 9.44433 49.5274C9.05908 49.9126 8.69493 50.3183 8.3535 50.7428C13.0231 54.2668 19.2765 54.713 24.3468 52.0812C20.0893 51.635 16.3039 49.6035 13.5911 46.5876ZM23.9582 39.7338C25.074 40.714 26.056 41.8367 26.879 43.0729V35.8954C26.879 35.4007 27.2805 34.9993 27.7751 34.9993C28.2697 34.9993 28.6713 35.4007 28.6713 35.8954V43.0888C29.5316 41.7934 30.5661 40.6226 31.7457 39.6094C32.576 35.3587 31.5762 30.7842 28.6176 27.1716C28.2725 26.7501 27.9048 26.3476 27.5162 25.9658C24.0407 29.7292 22.7937 34.9347 23.9582 39.7338ZM28.7378 46.7939C28.8559 47.1287 28.9632 47.4672 29.0598 47.8088C29.8435 46.85 30.7789 45.8271 31.651 45.1862C34.1617 43.3403 35.887 42.9844 35.887 42.9844C36.3703 42.8787 36.8484 43.1851 36.9541 43.6682C37.0598 44.1513 36.7535 44.6295 36.2703 44.7353C36.2703 44.7353 34.8324 45.0717 32.7125 46.6302C31.5746 47.4667 30.3253 49.0276 29.5368 50.0984C29.5496 50.1923 29.5617 50.2864 29.5729 50.3809C37.1151 50.3143 43.3335 44.7038 44.3511 37.4264C43.8095 37.3677 43.2651 37.3383 42.7203 37.3383C36.3834 37.3383 30.9613 41.2519 28.7378 46.7939ZM27.5526 49.1657C26.0731 42.4016 20.0485 37.3383 12.8405 37.3383C12.2895 37.3383 11.7454 37.3683 11.2097 37.4264C12.2335 44.7474 18.5203 50.3814 26.1234 50.3814C26.1589 50.3814 26.1945 50.3813 26.2299 50.3811C25.4667 49.3215 24.0912 47.5438 22.8483 46.6302C20.7284 45.0717 19.2905 44.7353 19.2905 44.7353C18.8073 44.6295 18.501 44.1513 18.6067 43.6682C18.7125 43.1851 19.1905 42.8787 19.6738 42.9844C19.6738 42.9844 21.3991 43.3403 23.9099 45.1862C25.2261 46.1537 26.6868 47.9912 27.5526 49.1657ZM41.9697 46.5876C39.257 49.6035 35.4715 51.635 31.214 52.0812C36.2843 54.7132 42.5377 54.2668 47.2073 50.7428C46.8659 50.3183 46.5017 49.9126 46.1165 49.5274C44.8742 48.2851 43.469 47.3051 41.9697 46.5876ZM19.6191 34.8601C19.6256 35.0977 19.5376 35.3281 19.3743 35.5008C19.211 35.6735 18.9859 35.7743 18.7483 35.781C18.254 35.7948 17.8413 35.4047 17.8275 34.9103L17.6566 28.7983L14.0306 32.5907C13.9388 32.6866 13.8268 32.761 13.7028 32.8084L5.20525 36.0572C5.19231 36.0621 5.17928 36.0667 5.16615 36.0711C4.60877 36.255 4.0172 36.3115 3.43508 36.2363C2.85296 36.1612 2.29514 35.9563 1.80275 35.6368C1.31037 35.3173 0.895981 34.8914 0.590155 34.3904C0.284329 33.8894 0.0948656 33.3262 0.0357391 32.7422L0.0200566 32.5866C-0.158948 30.8176 0.874864 29.1505 2.53642 28.5237L10.9478 24.9899L17.6031 17.782C17.6112 17.7733 17.6195 17.7647 17.6279 17.7563C19.3075 16.0767 21.2769 16.1545 23.4411 16.1545H32.1197C34.2839 16.1545 36.2533 16.0767 37.9329 17.7563C37.9413 17.7647 37.9496 17.7733 37.9577 17.782L44.613 24.9899L53.0216 28.5226C54.685 29.149 55.7198 30.8169 55.5408 32.5866L55.5251 32.7422C55.466 33.3262 55.2765 33.8895 54.9707 34.3905C54.6649 34.8915 54.2505 35.3174 53.7581 35.6369C53.2657 35.9564 52.7079 36.1613 52.1258 36.2364C51.5436 36.3116 50.952 36.255 50.3947 36.0711C50.3815 36.0667 50.3685 36.0621 50.3556 36.0572L41.858 32.8084C41.734 32.761 41.622 32.6866 41.5302 32.5907L38.0292 28.9291L38.195 34.8601C38.2016 35.0977 38.1136 35.3281 37.9503 35.5008C37.787 35.6735 37.5619 35.7743 37.3243 35.781C37.0868 35.7876 36.8564 35.6995 36.6837 35.5363C36.511 35.373 36.4103 35.1479 36.4035 34.9103L36.1725 26.6525C36.1675 26.4715 36.2175 26.2932 36.3157 26.1411C36.414 25.989 36.556 25.8703 36.7231 25.8005C36.8902 25.7307 37.0746 25.7132 37.2518 25.7503C37.4291 25.7874 37.591 25.8773 37.7162 26.0082L42.6864 31.2063C42.6864 31.2063 50.9745 34.375 50.9762 34.3755C51.2781 34.4719 51.5978 34.4997 51.9118 34.4568C52.2257 34.4139 52.5262 34.3015 52.7912 34.1277C53.0562 33.9539 53.2791 33.7231 53.4436 33.4523C53.608 33.1814 53.7099 32.8772 53.7419 32.5619L53.7577 32.4063C53.805 31.9376 53.6956 31.4664 53.4466 31.0666C53.1975 30.6668 52.8228 30.3608 52.3813 30.1967C52.3695 30.1924 52.3579 30.1878 52.3463 30.183L43.7395 26.567C43.6213 26.5173 43.5151 26.4429 43.4282 26.3487L36.652 19.01C35.3534 17.7239 33.7906 17.9468 32.1197 17.9468H23.4411C21.7696 17.9468 20.2063 17.7238 18.9071 19.0116L12.1326 26.3487C12.0457 26.4429 11.9395 26.5173 11.8213 26.567L3.21447 30.183C3.20291 30.1878 3.19126 30.1924 3.17952 30.1967C2.73796 30.3608 2.36331 30.6668 2.11425 31.0666C1.86518 31.4664 1.75577 31.9376 1.80315 32.4063L1.81895 32.5619C1.85083 32.8774 1.95279 33.1817 2.11738 33.4528C2.28197 33.7238 2.50503 33.9546 2.77027 34.1284C3.0355 34.3022 3.3362 34.4145 3.65041 34.4571C3.96461 34.4998 4.28438 34.4717 4.58635 34.375L12.8744 31.2063L17.8447 26.0082C17.9668 25.8803 18.1241 25.7915 18.2967 25.7529C18.4693 25.7142 18.6494 25.7275 18.8144 25.7911C18.9795 25.8546 19.122 25.9655 19.2241 26.1099C19.3262 26.2543 19.3833 26.4256 19.3883 26.6024L19.6191 34.8601ZM27.7804 0C31.7953 0 35.0549 3.2596 35.0549 7.27454C35.0549 11.2896 31.7953 14.5492 27.7804 14.5492C23.7655 14.5492 20.5059 11.2896 20.5059 7.27454C20.5059 3.2596 23.7655 0 27.7804 0ZM27.7804 1.79228C24.7546 1.79228 22.2981 4.24883 22.2981 7.27454C22.2981 10.3004 24.7546 12.7569 27.7804 12.7569C30.8062 12.7569 33.2627 10.3004 33.2627 7.27454C33.2627 4.24883 30.8062 1.79228 27.7804 1.79228Z" fill="#5F7C6A"/>
</svg>
