<svg width="25" height="24" viewBox="0 0 25 24" fill="none" xmlns="http://www.w3.org/2000/svg">
<path d="M14.7491 11.805C14.7491 12.9452 13.8246 13.8697 12.6844 13.8697C11.5441 13.8697 10.6196 12.9452 10.6196 11.805C10.6196 10.6647 11.5441 9.74023 12.6844 9.74023C13.8246 9.74023 14.7491 10.6647 14.7491 11.805Z" fill="#E9BC25"/>
<path d="M16.1715 5.56445H9.1973C7.67923 5.56445 6.44434 6.79934 6.44434 8.31742V15.2916C6.44434 16.8097 7.67923 18.0446 9.1973 18.0446H16.1715C17.6896 18.0446 18.9245 16.8097 18.9245 15.2916V8.31742C18.9245 6.79934 17.6896 5.56445 16.1715 5.56445ZM12.6844 15.2457C10.7869 15.2457 9.24319 13.702 9.24319 11.8045C9.24319 9.90703 10.7869 8.3633 12.6844 8.3633C14.5819 8.3633 16.1256 9.90703 16.1256 11.8045C16.1256 13.702 14.5819 15.2457 12.6844 15.2457ZM16.6303 8.54683C16.2502 8.54683 15.9421 8.23873 15.9421 7.85859C15.9421 7.47845 16.2502 7.17035 16.6303 7.17035C17.0105 7.17035 17.3186 7.47845 17.3186 7.85859C17.3186 8.23873 17.0105 8.54683 16.6303 8.54683Z" fill="#E9BC25"/>
<path d="M18.2347 0.0595703H7.13178C3.71657 0.0595703 0.937988 2.8382 0.937988 6.25336V17.3563C0.937988 20.7715 3.71662 23.5501 7.13178 23.5501H18.2347C21.6499 23.5501 24.4285 20.7715 24.4285 17.3563V6.25336C24.4285 2.83815 21.6499 0.0595703 18.2347 0.0595703ZM20.2993 15.2917C20.2993 17.5685 18.4469 19.4209 16.1701 19.4209H9.19638C6.91959 19.4209 5.06718 17.5685 5.06718 15.2917V8.31796C5.06718 6.04117 6.91959 4.18877 9.19638 4.18877H16.1701C18.4469 4.18877 20.2993 6.04117 20.2993 8.31796V15.2917Z" fill="#E9BC25"/>
</svg>
