<svg width="37" height="37" viewBox="0 0 37 37" fill="none" xmlns="http://www.w3.org/2000/svg">
<circle cx="18.5" cy="18.5" r="18" fill="white" stroke="#5F7C6A"/>
<path d="M20.1721 18.5021C20.1721 19.4244 19.4244 20.1721 18.5021 20.1721C17.5798 20.1721 16.832 19.4244 16.832 18.5021C16.832 17.5798 17.5798 16.832 18.5021 16.832C19.4244 16.832 20.1721 17.5798 20.1721 18.5021Z" fill="#5F7C6A"/>
<path d="M21.3228 13.4531H15.6811C14.4531 13.4531 13.4541 14.4521 13.4541 15.6801V21.3218C13.4541 22.5498 14.4531 23.5488 15.6811 23.5488H21.3228C22.5508 23.5488 23.5498 22.5498 23.5498 21.3218V15.6801C23.5498 14.4521 22.5508 13.4531 21.3228 13.4531ZM18.5019 21.2847C16.967 21.2847 15.7182 20.0359 15.7182 18.501C15.7182 16.966 16.967 15.7172 18.5019 15.7172C20.0369 15.7172 21.2857 16.966 21.2857 18.501C21.2857 20.0359 20.0369 21.2847 18.5019 21.2847ZM21.6939 15.8657C21.3864 15.8657 21.1372 15.6165 21.1372 15.3089C21.1372 15.0014 21.3864 14.7522 21.6939 14.7522C22.0015 14.7522 22.2507 15.0014 22.2507 15.3089C22.2507 15.6165 22.0015 15.8657 21.6939 15.8657Z" fill="#5F7C6A"/>
<path d="M22.9931 9H14.0108C11.2479 9 9 11.2479 9 14.0108V22.9931C9 25.756 11.2479 28.0039 14.0108 28.0039H22.9931C25.756 28.0039 28.0039 25.756 28.0039 22.9931V14.0108C28.0039 11.2479 25.756 9 22.9931 9ZM24.6634 21.3228C24.6634 23.1648 23.1648 24.6634 21.3228 24.6634H15.6811C13.8391 24.6634 12.3405 23.1648 12.3405 21.3228V15.6811C12.3405 13.8391 13.8391 12.3405 15.6811 12.3405H21.3228C23.1648 12.3405 24.6634 13.8391 24.6634 15.6811V21.3228Z" fill="#5F7C6A"/>
</svg>
