<svg width="34" height="34" viewBox="0 0 34 34" fill="none" xmlns="http://www.w3.org/2000/svg">
<circle cx="16.7061" cy="16.7061" r="16.2061" fill="white" stroke="#E9BC25"/>
<path d="M12.2988 15.0664C12.361 15.0043 12.4615 15.0044 12.5234 15.0664C12.5853 15.1284 12.5855 15.2289 12.5234 15.291L9.46289 18.3516L9.46191 18.3525C8.67604 19.1389 8.24121 20.189 8.24121 21.3008C8.24131 22.4126 8.67655 23.4627 9.46289 24.249C11.0386 25.8245 13.569 25.8736 15.2041 24.3965L15.3594 24.249L15.3613 24.2461L18.4209 21.1885C18.4832 21.1262 18.5837 21.1257 18.6455 21.1875C18.7076 21.2496 18.7075 21.3511 18.6455 21.4131L15.584 24.4736C14.7099 25.3477 13.5627 25.7861 12.4111 25.7861C11.2595 25.7861 10.1116 25.3479 9.2373 24.4736C8.38867 23.6249 7.92295 22.501 7.92285 21.3008C7.92285 20.1006 8.38887 18.9767 9.2373 18.1279L9.25391 18.1104H9.25293L12.2988 15.0664ZM18.4209 8.94434C20.17 7.19523 23.0183 7.19513 24.7676 8.94434C25.6163 9.79316 26.082 10.917 26.082 12.1172C26.082 13.3173 25.6161 14.4413 24.7676 15.29L21.7061 18.3516C21.6748 18.3828 21.6358 18.3984 21.5938 18.3984H21.5928C21.5723 18.3984 21.5521 18.3945 21.5332 18.3867C21.5143 18.3789 21.4969 18.3671 21.4824 18.3525L21.4814 18.3516C21.4196 18.2894 21.4196 18.1888 21.4814 18.127L24.543 15.0664V15.0654C25.329 14.2791 25.7637 13.229 25.7637 12.1172C25.7636 11.0746 25.3812 10.0867 24.6855 9.31934L24.543 9.16895L24.3867 9.02148C22.7517 7.54478 20.222 7.59344 18.6465 9.16797L15.584 12.2305C15.5529 12.2614 15.5136 12.2764 15.4717 12.2764H15.4707C15.4502 12.2764 15.43 12.2725 15.4111 12.2646C15.3922 12.2568 15.3748 12.245 15.3604 12.2305L15.3594 12.2295C15.2976 12.1675 15.2975 12.0668 15.3594 12.0049L18.4199 8.94434V8.94336L18.4209 8.94434Z" fill="#E9BC25" stroke="#E9BC25" stroke-width="1.84652"/>
<path d="M19.9512 13.5356C20.0133 13.4737 20.1138 13.4738 20.1758 13.5356C20.2379 13.5978 20.2378 13.6983 20.1758 13.7603L14.0537 19.8823C14.0225 19.9135 13.9834 19.9292 13.9414 19.9292H13.9404C13.92 19.9292 13.8997 19.9253 13.8809 19.9175C13.8619 19.9096 13.8446 19.8978 13.8301 19.8833L13.8291 19.8823L13.7939 19.8296C13.7709 19.7724 13.7827 19.7043 13.8291 19.6577L19.9512 13.5356Z" fill="#E9BC25" stroke="#E9BC25" stroke-width="1.84652"/>
</svg>
