<svg width="197" height="55" viewBox="0 0 197 55" fill="none" xmlns="http://www.w3.org/2000/svg">
<path d="M53.2101 27.2385C53.2101 13.2653 41.7448 1.90036 27.5552 1.90036C13.3657 1.90036 1.90036 13.2653 1.90036 27.2385C1.90036 41.2117 13.3657 52.5766 27.5552 52.5766V54.477C12.3369 54.477 0 42.2819 0 27.2385C0 12.1951 12.3369 0 27.5552 0C42.7735 0 55.1104 12.1951 55.1104 27.2385C55.1104 42.2819 42.7735 54.477 27.5552 54.477V52.5766C41.7448 52.5766 53.2101 41.2117 53.2101 27.2385Z" fill="#5F7C6A"/>
<path d="M26.9634 37.1609C24.7728 34.1018 23.4276 30.7351 23.3047 26.9458C23.1817 23.1871 24.2655 19.0365 26.9173 14.3786L27.5322 13.3025L28.2777 14.294C31.6597 18.7444 32.9357 22.8259 32.7205 26.6229C32.5052 30.4277 30.8142 33.9096 28.2777 37.184L27.6013 38.0526L26.9634 37.1609ZM24.9342 26.892C25.0418 29.9434 26.0256 32.7105 27.6628 35.2624C29.6305 32.503 30.9142 29.6129 31.0833 26.523C31.26 23.387 30.2916 20.005 27.732 16.3002C25.6798 20.2202 24.8343 23.7252 24.9342 26.892ZM29.3461 37.061C30.6989 33.9327 32.6513 31.3347 35.4568 29.5053C38.2393 27.6913 41.8442 26.6614 46.5252 26.6306L47.7319 26.6229L47.2784 27.7528C45.4029 32.4415 42.8741 35.3085 39.9072 36.8765C36.9403 38.4522 33.566 38.7059 29.9841 38.1909L28.9234 38.0372L29.3461 37.061ZM36.3407 30.8812C34.1695 32.3335 32.4324 34.3469 31.3138 36.7074C34.1578 36.9765 36.8173 36.6613 39.1462 35.4315C41.529 34.1709 43.6197 31.9112 45.2723 28.2986C41.5444 28.483 38.6236 29.39 36.3407 30.8812ZM24.0195 36.7074C22.8988 34.346 21.1589 32.3325 18.9849 30.8812C16.7098 29.39 13.789 28.483 10.0611 28.2986C11.7136 31.9112 13.7966 34.1709 16.1871 35.4315C18.5161 36.6613 21.1679 36.9688 24.0195 36.7074ZM19.8766 29.5053C22.6821 31.3347 24.6267 33.9327 25.9795 37.061L26.41 38.0449L25.3492 38.1986C21.7674 38.7059 18.3931 38.4522 15.4262 36.8765C12.4515 35.3085 9.93041 32.4492 8.04725 27.7528L7.60144 26.6229H8.8082C13.4892 26.6537 17.0941 27.699 19.8766 29.5053Z" fill="#5F7C6A"/>
<path d="M31.3523 23.6945C32.2747 22.48 33.4199 21.3501 34.8112 20.3125C36.1947 19.2825 37.8165 18.3371 39.7227 17.4916L40.8296 17.0073L40.868 18.2218C40.9449 20.6583 40.7143 22.8874 40.2377 24.832C39.8238 26.6642 39.0361 28.3912 37.9241 29.905L36.6251 28.9058C37.5168 27.7528 38.2008 26.2386 38.6467 24.4477C39.0156 22.9719 39.2154 21.3194 39.2462 19.5284C37.9395 20.1741 36.7942 20.8736 35.7873 21.6268C34.6046 22.4955 33.5491 23.5252 32.6513 24.686L31.3523 23.6945ZM23.7505 24.686C22.8527 23.5252 21.7972 22.4955 20.6145 21.6268C19.527 20.8247 18.3693 20.1224 17.1556 19.5284C17.1787 21.427 17.3862 23.2486 17.7551 24.8782C18.1856 26.7536 18.8466 28.337 19.7075 29.4592L18.4085 30.4584C17.3026 28.8983 16.5378 27.1226 16.1641 25.2471C15.657 22.9415 15.4452 20.5808 15.5338 18.2218L15.5722 17.0073L16.679 17.4916C18.5853 18.3371 20.2148 19.2825 21.5906 20.3125C22.9819 21.3501 24.1271 22.48 25.0495 23.6945L23.7505 24.686ZM28.4315 36.523C29.1079 39.905 29.5084 40.8063 29.5084 43.5816C29.5084 48.5753 27.2385 52.6611 26.0289 53.3067L24.5147 52.6611C26.3306 50.8452 27.8635 47.6674 27.8635 43.6123C27.7461 40.6051 27.4569 39.7866 26.8174 36.8458L28.4315 36.523Z" fill="#5F7C6A"/>
<path d="M194.437 37.5487V23.431H197V37.5487H194.437Z" fill="#333333"/>
<path d="M185.52 37.7489C183.584 37.7489 182.102 37.2483 181.075 36.247C180.06 35.2324 179.553 33.7372 179.553 31.7614V23.431H182.116V31.7414C182.116 33.0097 182.403 33.9642 182.977 34.605C183.564 35.2324 184.412 35.5462 185.52 35.5462C186.628 35.5462 187.469 35.2324 188.043 34.605C188.617 33.9642 188.904 33.0097 188.904 31.7414V23.431H191.447V31.7614C191.447 33.7372 190.947 35.2324 189.946 36.247C188.944 37.2483 187.469 37.7489 185.52 37.7489Z" fill="#333333"/>
<path d="M169.903 37.5487L163.615 23.431H166.358L171.465 35.2658H170.604L175.69 23.431H178.333L172.045 37.5487H169.903Z" fill="#333333"/>
<path d="M145 37.5487V23.431H146.922L155.032 33.9642H154.512V23.431H156.895V37.5487H154.992L146.882 26.9955H147.383V37.5487H145Z" fill="#333333"/>
<path d="M128.577 37.5487L134.965 23.431H137.067L143.455 37.5487H140.852L139.15 33.5837L140.231 34.2846H131.781L132.862 33.5837L131.18 37.5487H128.577ZM135.986 26.2145L133.182 32.8828L132.662 32.242H139.35L138.849 32.8828L136.026 26.2145H135.986Z" fill="#333333"/>
<path d="M116.745 37.749C115.183 37.749 113.861 37.4553 112.78 36.8679C111.712 36.2805 110.897 35.4461 110.337 34.3648C109.776 33.2834 109.496 32.0018 109.496 30.5199C109.496 29.0247 109.783 27.7365 110.357 26.6551C110.931 25.5604 111.758 24.7194 112.84 24.132C113.921 23.5312 115.216 23.2308 116.725 23.2308C117.392 23.2308 118.026 23.2976 118.627 23.4311C119.241 23.5512 119.808 23.7315 120.329 23.9718C120.85 24.2121 121.297 24.5058 121.671 24.8529L120.81 26.8554C120.182 26.3614 119.541 26.0076 118.887 25.794C118.233 25.5804 117.512 25.4736 116.725 25.4736C115.229 25.4736 114.095 25.9075 113.32 26.7753C112.559 27.643 112.179 28.8912 112.179 30.5199C112.179 32.162 112.573 33.4102 113.36 34.2646C114.148 35.119 115.316 35.5462 116.865 35.5462C117.399 35.5462 117.939 35.4928 118.487 35.386C119.034 35.2792 119.568 35.1324 120.089 34.9455L119.588 36.0869V31.8216H116.344V29.9192H121.731V36.7077C121.304 36.9213 120.81 37.1082 120.249 37.2684C119.702 37.4152 119.128 37.5287 118.527 37.6088C117.926 37.7023 117.332 37.749 116.745 37.749Z" fill="#333333"/>
<path d="M94.9764 37.5487V23.431H96.8988L105.009 33.9642H104.488V23.431H106.871V37.5487H104.969L96.8588 26.9955H97.3594V37.5487H94.9764Z" fill="#333333"/>
<path d="M85.5817 37.749C84.5537 37.749 83.6192 37.5821 82.7782 37.2483C81.9505 36.9012 81.2363 36.4073 80.6355 35.7665C80.0481 35.1257 79.5942 34.3581 79.2738 33.4636C78.9534 32.5692 78.7932 31.5746 78.7932 30.4799C78.7932 29.3718 78.9534 28.3772 79.2738 27.4961C79.5942 26.6017 80.0481 25.8407 80.6355 25.2133C81.2363 24.5725 81.9505 24.0852 82.7782 23.7515C83.6192 23.4044 84.5537 23.2308 85.5817 23.2308C86.6097 23.2308 87.5375 23.4044 88.3652 23.7515C89.2062 24.0852 89.9205 24.5658 90.5079 25.1933C91.1086 25.8207 91.5692 26.5817 91.8896 27.4761C92.21 28.3572 92.3702 29.3518 92.3702 30.4599C92.3702 31.5679 92.21 32.5692 91.8896 33.4636C91.5692 34.3581 91.1086 35.1257 90.5079 35.7665C89.9205 36.4073 89.2062 36.9012 88.3652 37.2483C87.5375 37.5821 86.6097 37.749 85.5817 37.749ZM85.5817 35.5462C86.4495 35.5462 87.1837 35.346 87.7845 34.9455C88.3986 34.545 88.8658 33.9642 89.1862 33.2033C89.52 32.4423 89.6868 31.5345 89.6868 30.4799C89.6868 29.4119 89.5266 28.5041 89.2062 27.7565C88.8858 26.9955 88.4186 26.4215 87.8045 26.0343C87.1904 25.6338 86.4495 25.4336 85.5817 25.4336C84.7273 25.4336 83.993 25.6338 83.3789 26.0343C82.7648 26.4215 82.2909 26.9955 81.9572 27.7565C81.6368 28.5041 81.4766 29.4119 81.4766 30.4799C81.4766 31.5345 81.6368 32.4423 81.9572 33.2033C82.2909 33.9642 82.7648 34.545 83.3789 34.9455C83.993 35.346 84.7273 35.5462 85.5817 35.5462ZM82.2575 22.2296L84.4603 18.9655H86.6631L88.8658 22.2296H87.2638L85.5617 20.3272L83.8595 22.2296H82.2575ZM87.7444 20.0869L89.4265 17.0831H91.5091L89.1662 20.0869H87.7444Z" fill="#333333"/>
<path d="M71.4869 37.749C70.7526 37.749 70.0451 37.6822 69.3642 37.5487C68.6967 37.4286 68.0759 37.2484 67.5019 37.0081C66.9412 36.7678 66.4406 36.4807 66 36.147L66.781 34.1245C67.2215 34.4315 67.6821 34.6985 68.1627 34.9255C68.6567 35.1391 69.1773 35.3059 69.7247 35.4261C70.2854 35.5329 70.8728 35.5863 71.4869 35.5863C72.5415 35.5863 73.3091 35.4127 73.7897 35.0656C74.2703 34.7052 74.5106 34.2446 74.5106 33.6839C74.5106 33.3769 74.4372 33.1165 74.2904 32.9029C74.1435 32.676 73.9032 32.4824 73.5695 32.3222C73.2357 32.162 72.7952 32.0285 72.2478 31.9217L70.0451 31.4611C68.7768 31.1941 67.829 30.7469 67.2015 30.1194C66.5874 29.4786 66.2804 28.6376 66.2804 27.5963C66.2804 26.7152 66.514 25.9476 66.9812 25.2934C67.4485 24.6393 68.096 24.132 68.9237 23.7715C69.7514 23.4111 70.7059 23.2308 71.7872 23.2308C72.428 23.2308 73.0421 23.2976 73.6295 23.4311C74.2303 23.5512 74.7776 23.7381 75.2716 23.9918C75.7789 24.2321 76.2194 24.5258 76.5932 24.8729L75.8123 26.7953C75.2516 26.328 74.6375 25.9809 73.97 25.754C73.3025 25.5137 72.5682 25.3935 71.7672 25.3935C71.1531 25.3935 70.6258 25.4803 70.1852 25.6539C69.7447 25.8274 69.4043 26.0744 69.164 26.3948C68.937 26.7018 68.8235 27.069 68.8235 27.4962C68.8235 27.9768 68.9837 28.3639 69.3041 28.6576C69.6245 28.938 70.1719 29.1582 70.9462 29.3184L73.1289 29.779C74.4506 30.0594 75.4318 30.4999 76.0726 31.1007C76.7267 31.7014 77.0538 32.5024 77.0538 33.5037C77.0538 34.3447 76.8269 35.0857 76.373 35.7265C75.9191 36.3673 75.2716 36.8679 74.4305 37.2283C73.6028 37.5754 72.6216 37.749 71.4869 37.749Z" fill="#333333"/>
</svg>
