<svg width="65" height="66" viewBox="0 0 65 66" fill="none" xmlns="http://www.w3.org/2000/svg">
<path d="M57.2101 27.2385C57.2101 13.2653 45.7448 1.90036 31.5552 1.90036C17.3657 1.90036 5.90036 13.2653 5.90036 27.2385C5.90036 41.2117 17.3657 52.5766 31.5552 52.5766V54.477C16.3369 54.477 4 42.2819 4 27.2385C4 12.1951 16.3369 0 31.5552 0C46.7735 0 59.1104 12.1951 59.1104 27.2385C59.1104 42.2819 46.7735 54.477 31.5552 54.477V52.5766C45.7448 52.5766 57.2101 41.2117 57.2101 27.2385Z" fill="#5F7C6A"/>
<path d="M30.9634 37.1609C28.7728 34.1018 27.4276 30.7351 27.3047 26.9458C27.1817 23.1871 28.2655 19.0365 30.9173 14.3786L31.5322 13.3025L32.2777 14.294C35.6597 18.7444 36.9357 22.8259 36.7205 26.6229C36.5052 30.4277 34.8142 33.9096 32.2777 37.184L31.6013 38.0526L30.9634 37.1609ZM28.9342 26.892C29.0418 29.9434 30.0256 32.7105 31.6628 35.2624C33.6305 32.503 34.9142 29.6129 35.0833 26.523C35.26 23.387 34.2916 20.005 31.732 16.3002C29.6798 20.2202 28.8343 23.7252 28.9342 26.892ZM33.3461 37.061C34.6989 33.9327 36.6513 31.3347 39.4568 29.5053C42.2393 27.6913 45.8442 26.6614 50.5252 26.6306L51.7319 26.6229L51.2784 27.7528C49.4029 32.4415 46.8741 35.3085 43.9072 36.8765C40.9403 38.4522 37.566 38.7059 33.9841 38.1909L32.9234 38.0372L33.3461 37.061ZM40.3407 30.8812C38.1695 32.3335 36.4324 34.3469 35.3138 36.7074C38.1578 36.9765 40.8173 36.6613 43.1462 35.4315C45.529 34.1709 47.6197 31.9112 49.2723 28.2986C45.5444 28.483 42.6236 29.39 40.3407 30.8812ZM28.0195 36.7074C26.8988 34.346 25.1589 32.3325 22.9849 30.8812C20.7098 29.39 17.789 28.483 14.0611 28.2986C15.7136 31.9112 17.7966 34.1709 20.1871 35.4315C22.5161 36.6613 25.1679 36.9688 28.0195 36.7074ZM23.8766 29.5053C26.6821 31.3347 28.6267 33.9327 29.9795 37.061L30.41 38.0449L29.3492 38.1986C25.7674 38.7059 22.3931 38.4522 19.4262 36.8765C16.4515 35.3085 13.9304 32.4492 12.0472 27.7528L11.6014 26.6229H12.8082C17.4892 26.6537 21.0941 27.699 23.8766 29.5053Z" fill="#5F7C6A"/>
<path d="M35.3523 23.6945C36.2747 22.48 37.4199 21.3501 38.8112 20.3125C40.1947 19.2825 41.8165 18.3371 43.7227 17.4916L44.8296 17.0073L44.868 18.2218C44.9449 20.6583 44.7143 22.8874 44.2377 24.832C43.8238 26.6642 43.0361 28.3912 41.9241 29.905L40.6251 28.9058C41.5168 27.7528 42.2008 26.2386 42.6467 24.4477C43.0156 22.9719 43.2154 21.3194 43.2462 19.5284C41.9395 20.1741 40.7942 20.8736 39.7873 21.6268C38.6046 22.4955 37.5491 23.5252 36.6513 24.686L35.3523 23.6945ZM27.7505 24.686C26.8527 23.5252 25.7972 22.4955 24.6145 21.6268C23.527 20.8247 22.3693 20.1224 21.1556 19.5284C21.1787 21.427 21.3862 23.2486 21.7551 24.8782C22.1856 26.7536 22.8466 28.337 23.7075 29.4592L22.4085 30.4584C21.3026 28.8983 20.5378 27.1226 20.1641 25.2471C19.657 22.9415 19.4452 20.5808 19.5338 18.2218L19.5722 17.0073L20.679 17.4916C22.5853 18.3371 24.2148 19.2825 25.5906 20.3125C26.9819 21.3501 28.1271 22.48 29.0495 23.6945L27.7505 24.686ZM32.4315 36.523C33.1079 39.905 33.5084 40.8063 33.5084 43.5816C33.5084 48.5753 31.2385 52.6611 30.0289 53.3067L28.5147 52.6611C30.3306 50.8452 31.8635 47.6674 31.8635 43.6123C31.7461 40.6051 31.4569 39.7866 30.8174 36.8458L32.4315 36.523Z" fill="#5F7C6A"/>
<path d="M63.7281 65.5818V59.6619H65V65.5818H63.7281Z" fill="#333333"/>
<path d="M59.304 65.6658C58.3435 65.6658 57.6082 65.4559 57.0982 65.036C56.5947 64.6106 56.343 63.9836 56.343 63.1551V59.6619H57.6148V63.1467C57.6148 63.6785 57.7573 64.0788 58.0421 64.3475C58.3335 64.6106 58.7542 64.7421 59.304 64.7421C59.8538 64.7421 60.2711 64.6106 60.5559 64.3475C60.8408 64.0788 60.9832 63.6785 60.9832 63.1467V59.6619H62.2451V63.1551C62.2451 63.9836 61.9967 64.6106 61.4998 65.036C61.003 65.4559 60.2711 65.6658 59.304 65.6658Z" fill="#333333"/>
<path d="M51.5549 65.5818L48.4349 59.6619H49.7962L52.3299 64.6246H51.9026L54.4264 59.6619H55.738L52.618 65.5818H51.5549Z" fill="#333333"/>
<path d="M39.1985 65.5818V59.6619H40.1524L44.1765 64.0788H43.9181V59.6619H45.1005V65.5818H44.1566L40.1325 61.1566H40.3809V65.5818H39.1985Z" fill="#333333"/>
<path d="M31.0496 65.5818L34.2192 59.6619H35.2625L38.4321 65.5818H37.1404L36.2958 63.9192L36.8324 64.2131H32.6393L33.1759 63.9192L32.3413 65.5818H31.0496ZM34.7259 60.8291L33.3349 63.6253L33.0765 63.3566H36.3952L36.1468 63.6253L34.7458 60.8291H34.7259Z" fill="#333333"/>
<path d="M25.1787 65.6658C24.4036 65.6658 23.7479 65.5426 23.2113 65.2963C22.6814 65.05 22.2773 64.7001 21.9991 64.2467C21.7209 63.7932 21.5818 63.2558 21.5818 62.6344C21.5818 62.0074 21.7242 61.4672 22.009 61.0138C22.2939 60.5547 22.7046 60.2021 23.2411 59.9558C23.7777 59.7038 24.4202 59.5779 25.1687 59.5779C25.4999 59.5779 25.8146 59.6059 26.1126 59.6619C26.4174 59.7122 26.6989 59.7878 26.9572 59.8886C27.2155 59.9893 27.4375 60.1125 27.6229 60.258L27.1957 61.0978C26.8843 60.8906 26.5664 60.7423 26.2418 60.6527C25.9172 60.5631 25.5595 60.5184 25.1687 60.5184C24.4268 60.5184 23.8638 60.7003 23.4796 61.0642C23.102 61.428 22.9132 61.9515 22.9132 62.6344C22.9132 63.323 23.1086 63.8464 23.4995 64.2047C23.8903 64.563 24.4699 64.7421 25.2383 64.7421C25.5032 64.7421 25.7715 64.7197 26.0431 64.6749C26.3147 64.6302 26.5796 64.5686 26.838 64.4902L26.5896 64.9688V63.1802H24.9799V62.3825H27.6527V65.2291C27.4408 65.3187 27.1957 65.3971 26.9175 65.4643C26.6459 65.5258 26.361 65.5734 26.063 65.607C25.7649 65.6462 25.4701 65.6658 25.1787 65.6658Z" fill="#333333"/>
<path d="M14.3777 65.5818V59.6619H15.3316L19.3557 64.0788H19.0973V59.6619H20.2797V65.5818H19.3358L15.3117 61.1566H15.5601V65.5818H14.3777Z" fill="#333333"/>
<path d="M9.71611 65.6658C9.20606 65.6658 8.74238 65.5959 8.32506 65.4559C7.91437 65.3104 7.55998 65.1032 7.2619 64.8345C6.97044 64.5658 6.74522 64.2439 6.58624 63.8688C6.42727 63.4938 6.34778 63.0767 6.34778 62.6177C6.34778 62.153 6.42727 61.736 6.58624 61.3665C6.74522 60.9914 6.97044 60.6723 7.2619 60.4092C7.55998 60.1405 7.91437 59.9362 8.32506 59.7962C8.74238 59.6507 9.20606 59.5779 9.71611 59.5779C10.2262 59.5779 10.6865 59.6507 11.0972 59.7962C11.5145 59.9362 11.8689 60.1377 12.1604 60.4008C12.4585 60.6639 12.687 60.983 12.846 61.3581C13.005 61.7276 13.0844 62.1446 13.0844 62.6093C13.0844 63.0739 13.005 63.4938 12.846 63.8688C12.687 64.2439 12.4585 64.5658 12.1604 64.8345C11.8689 65.1032 11.5145 65.3104 11.0972 65.4559C10.6865 65.5959 10.2262 65.6658 9.71611 65.6658ZM9.71611 64.7422C10.1467 64.7422 10.511 64.6582 10.8091 64.4902C11.1138 64.3223 11.3456 64.0788 11.5046 63.7597C11.6702 63.4406 11.753 63.0599 11.753 62.6177C11.753 62.1698 11.6735 61.7892 11.5145 61.4757C11.3556 61.1566 11.1237 60.9159 10.819 60.7535C10.5143 60.5856 10.1467 60.5016 9.71611 60.5016C9.29217 60.5016 8.92785 60.5856 8.62314 60.7535C8.31844 60.9159 8.08328 61.1566 7.91768 61.4757C7.7587 61.7892 7.67921 62.1698 7.67921 62.6177C7.67921 63.0599 7.7587 63.4406 7.91768 63.7597C8.08328 64.0788 8.31844 64.3223 8.62314 64.4902C8.92785 64.6582 9.29217 64.7422 9.71611 64.7422ZM8.06672 59.1581L9.15969 57.7893H10.2527L11.3456 59.1581H10.5507L9.70618 58.3603L8.86161 59.1581H8.06672ZM10.7892 58.2596L11.6238 57H12.6572L11.4947 58.2596H10.7892Z" fill="#333333"/>
<path d="M2.72249 65.6658C2.35816 65.6658 2.00709 65.6378 1.66926 65.5818C1.33806 65.5314 1.03004 65.4559 0.745207 65.3551C0.466996 65.2543 0.218594 65.134 0 64.994L0.387507 64.1459C0.606101 64.2747 0.834631 64.3866 1.0731 64.4818C1.31819 64.5714 1.57653 64.6413 1.84811 64.6917C2.12632 64.7365 2.41778 64.7589 2.72249 64.7589C3.24579 64.7589 3.62667 64.6861 3.86514 64.5406C4.1036 64.3894 4.22284 64.1963 4.22284 63.9612C4.22284 63.8324 4.1864 63.7233 4.11354 63.6337C4.04068 63.5385 3.92144 63.4574 3.75584 63.3902C3.59024 63.323 3.37165 63.267 3.10006 63.2222L2.00709 63.0291C1.3778 62.9171 0.907496 62.7296 0.596165 62.4665C0.291459 62.1978 0.139105 61.8451 0.139105 61.4085C0.139105 61.039 0.255026 60.7171 0.486868 60.4428C0.71871 60.1685 1.03998 59.9558 1.45067 59.8046C1.86136 59.6535 2.33498 59.5779 2.87153 59.5779C3.18948 59.5779 3.49419 59.6059 3.78565 59.6619C4.08373 59.7122 4.35532 59.7906 4.60041 59.897C4.85212 59.9977 5.07072 60.1209 5.25619 60.2664L4.86868 61.0726C4.59047 60.8766 4.28577 60.7311 3.95456 60.6359C3.62336 60.5352 3.25904 60.4848 2.86159 60.4848C2.55689 60.4848 2.29524 60.5212 2.07664 60.5939C1.85805 60.6667 1.68914 60.7703 1.5699 60.9046C1.45729 61.0334 1.40099 61.1873 1.40099 61.3665C1.40099 61.568 1.48048 61.7303 1.63945 61.8535C1.79843 61.9711 2.07002 62.0634 2.45421 62.1306L3.53725 62.3237C4.19303 62.4413 4.6799 62.626 4.99785 62.878C5.32243 63.1299 5.48472 63.4658 5.48472 63.8856C5.48472 64.2383 5.37211 64.549 5.14689 64.8177C4.92168 65.0864 4.60041 65.2963 4.18309 65.4475C3.7724 65.593 3.28553 65.6658 2.72249 65.6658Z" fill="#333333"/>
</svg>
