<svg width="56" height="55" viewBox="0 0 56 55" fill="none" xmlns="http://www.w3.org/2000/svg">
<path d="M53.2101 27.2385C53.2101 13.2653 41.7448 1.90036 27.5552 1.90036C13.3657 1.90036 1.90036 13.2653 1.90036 27.2385C1.90036 41.2117 13.3657 52.5766 27.5552 52.5766V54.477C12.3369 54.477 0 42.2819 0 27.2385C0 12.1951 12.3369 0 27.5552 0C42.7735 0 55.1104 12.1951 55.1104 27.2385C55.1104 42.2819 42.7735 54.477 27.5552 54.477V52.5766C41.7448 52.5766 53.2101 41.2117 53.2101 27.2385Z" fill="#5F7C6A"/>
<path d="M26.9634 37.1609C24.7728 34.1018 23.4276 30.7351 23.3047 26.9458C23.1817 23.1871 24.2655 19.0365 26.9173 14.3786L27.5322 13.3025L28.2777 14.294C31.6597 18.7444 32.9357 22.8259 32.7205 26.6229C32.5052 30.4277 30.8142 33.9096 28.2777 37.184L27.6013 38.0526L26.9634 37.1609ZM24.9342 26.892C25.0418 29.9434 26.0256 32.7105 27.6628 35.2624C29.6305 32.503 30.9142 29.6129 31.0833 26.523C31.26 23.387 30.2916 20.005 27.732 16.3002C25.6798 20.2202 24.8343 23.7252 24.9342 26.892ZM29.3461 37.061C30.6989 33.9327 32.6513 31.3347 35.4568 29.5053C38.2393 27.6913 41.8442 26.6614 46.5252 26.6306L47.7319 26.6229L47.2784 27.7528C45.4029 32.4415 42.8741 35.3085 39.9072 36.8765C36.9403 38.4522 33.566 38.7059 29.9841 38.1909L28.9234 38.0372L29.3461 37.061ZM36.3407 30.8812C34.1695 32.3335 32.4324 34.3469 31.3138 36.7074C34.1578 36.9765 36.8173 36.6613 39.1462 35.4315C41.529 34.1709 43.6197 31.9112 45.2723 28.2986C41.5444 28.483 38.6236 29.39 36.3407 30.8812ZM24.0195 36.7074C22.8988 34.346 21.1589 32.3325 18.9849 30.8812C16.7098 29.39 13.789 28.483 10.0611 28.2986C11.7136 31.9112 13.7966 34.1709 16.1871 35.4315C18.5161 36.6613 21.1679 36.9688 24.0195 36.7074ZM19.8766 29.5053C22.6821 31.3347 24.6267 33.9327 25.9795 37.061L26.41 38.0449L25.3492 38.1986C21.7674 38.7059 18.3931 38.4522 15.4262 36.8765C12.4515 35.3085 9.93041 32.4492 8.04725 27.7528L7.60144 26.6229H8.8082C13.4892 26.6537 17.0941 27.699 19.8766 29.5053Z" fill="#5F7C6A"/>
<path d="M31.3523 23.6945C32.2747 22.48 33.4199 21.3501 34.8112 20.3125C36.1947 19.2825 37.8165 18.3371 39.7227 17.4916L40.8296 17.0073L40.868 18.2218C40.9449 20.6583 40.7143 22.8874 40.2377 24.832C39.8238 26.6642 39.0361 28.3912 37.9241 29.905L36.6251 28.9058C37.5168 27.7528 38.2008 26.2386 38.6467 24.4477C39.0156 22.9719 39.2154 21.3194 39.2462 19.5284C37.9395 20.1741 36.7942 20.8736 35.7873 21.6268C34.6046 22.4955 33.5491 23.5252 32.6513 24.686L31.3523 23.6945ZM23.7505 24.686C22.8527 23.5252 21.7972 22.4955 20.6145 21.6268C19.527 20.8247 18.3693 20.1224 17.1556 19.5284C17.1787 21.427 17.3862 23.2486 17.7551 24.8782C18.1856 26.7536 18.8466 28.337 19.7075 29.4592L18.4085 30.4584C17.3026 28.8983 16.5378 27.1226 16.1641 25.2471C15.657 22.9415 15.4452 20.5808 15.5338 18.2218L15.5722 17.0073L16.679 17.4916C18.5853 18.3371 20.2148 19.2825 21.5906 20.3125C22.9819 21.3501 24.1271 22.48 25.0495 23.6945L23.7505 24.686ZM28.4315 36.523C29.1079 39.905 29.5084 40.8063 29.5084 43.5816C29.5084 48.5753 27.2385 52.6611 26.0289 53.3067L24.5147 52.6611C26.3306 50.8452 27.8635 47.6674 27.8635 43.6123C27.7461 40.6051 27.4569 39.7866 26.8174 36.8458L28.4315 36.523Z" fill="#5F7C6A"/>
</svg>
