<svg width="359" height="354" viewBox="0 0 359 354" fill="none" xmlns="http://www.w3.org/2000/svg">
<g opacity="0.05">
<path d="M345.767 177C345.767 86.1999 271.264 12.3488 179.058 12.3488C86.8521 12.3488 12.3488 86.1999 12.3488 177C12.3488 267.8 86.8521 341.651 179.058 341.651V354C80.1671 354 0 274.754 0 177C0 79.2456 80.1671 0 179.058 0C277.949 0 358.116 79.2456 358.116 177C358.116 274.754 277.949 354 179.058 354V341.651C271.264 341.651 345.767 267.8 345.767 177Z" fill="#5F7C6A"/>
<path d="M175.212 241.478C160.977 221.599 152.236 199.722 151.437 175.098C150.638 150.674 157.681 123.702 174.912 93.4345L178.908 86.4419L183.753 92.8851C205.73 121.804 214.021 148.326 212.623 173C211.224 197.724 200.236 220.35 183.753 241.628L179.358 247.272L175.212 241.478ZM162.026 174.748C162.725 194.577 169.119 212.558 179.757 229.141C192.544 211.21 200.885 192.43 201.984 172.351C203.133 151.973 196.839 129.996 180.207 105.921C166.871 131.394 161.377 154.17 162.026 174.748ZM190.696 240.829C199.486 220.5 212.173 203.618 230.404 191.73C248.485 179.943 271.91 173.25 302.328 173.05L310.169 173L307.222 180.343C295.035 210.81 278.603 229.441 259.323 239.63C240.044 249.869 218.117 251.517 194.841 248.171L187.949 247.172L190.696 240.829ZM236.148 200.671C222.039 210.108 210.751 223.192 203.482 238.531C221.963 240.279 239.244 238.231 254.378 230.24C269.862 222.048 283.448 207.364 294.186 183.889C269.962 185.088 250.982 190.981 236.148 200.671ZM156.082 238.531C148.8 223.186 137.494 210.102 123.367 200.671C108.583 190.981 89.6027 185.088 65.3784 183.889C76.117 207.364 89.6527 222.048 105.186 230.24C120.32 238.231 137.552 240.229 156.082 238.531ZM129.161 191.73C147.392 203.618 160.028 220.5 168.819 240.829L171.616 247.222L164.723 248.221C141.448 251.517 119.521 249.869 100.241 239.63C80.9119 229.441 64.5293 210.86 52.2922 180.343L49.3953 173H57.237C87.6548 173.2 111.08 179.993 129.161 191.73Z" fill="#5F7C6A"/>
<path d="M203.732 153.97C209.726 146.079 217.168 138.736 226.208 131.994C235.199 125.301 245.738 119.157 258.124 113.663L265.317 110.516L265.567 118.408C266.066 134.241 264.568 148.726 261.471 161.363C258.781 173.268 253.663 184.491 246.437 194.328L237.996 187.835C243.79 180.342 248.235 170.503 251.132 158.865C253.529 149.275 254.828 138.537 255.028 126.899C246.537 131.095 239.095 135.64 232.552 140.535C224.866 146.18 218.007 152.871 212.173 160.414L203.732 153.97ZM154.334 160.414C148.5 152.871 141.641 146.18 133.956 140.535C126.889 135.323 119.367 130.759 111.48 126.899C111.63 139.236 112.978 151.073 115.376 161.662C118.173 173.849 122.468 184.138 128.062 191.431L119.621 197.924C112.435 187.786 107.465 176.247 105.037 164.06C101.741 149.078 100.365 133.737 100.941 118.408L101.191 110.516L108.383 113.663C120.77 119.157 131.359 125.301 140.299 131.994C149.34 138.736 156.782 146.079 162.775 153.97L154.334 160.414ZM184.752 237.332C189.148 259.309 191.994 279.288 192.344 297.319C192.644 315.649 190.346 331.832 184.452 345.767L174.613 341.572C179.907 329.085 181.955 314.401 181.655 297.518C180.893 277.977 178.419 258.54 174.263 239.43L184.752 237.332Z" fill="#5F7C6A"/>
</g>
</svg>
