<svg width="25" height="25" viewBox="0 0 25 25" fill="none" xmlns="http://www.w3.org/2000/svg">
<path d="M22.6875 15.7031C23.625 16.125 24.1406 17.1562 23.9062 18.1406L22.9219 22.5469C22.6875 23.5312 21.8438 24.1875 20.8125 24.1875C9.32813 24.1875 0 14.8594 0 3.375C0 2.34375 0.65625 1.5 1.64062 1.26562L6.04688 0.234375C7.03125 0 8.0625 0.515625 8.48438 1.45312L10.5 6.23437C10.875 7.07812 10.6406 8.10938 9.9375 8.71875L8.01562 10.3125C9.375 12.75 11.4375 14.8125 13.875 16.1719L15.4688 14.2969C16.0312 13.5469 17.0625 13.3125 17.9062 13.6406L22.6875 15.7031ZM21.4219 22.2188L22.4531 17.8125C22.5469 17.4844 22.3594 17.2031 22.0781 17.1094L17.3438 15.0469C17.0625 14.9531 16.7812 15 16.5938 15.2344L14.6719 17.5781C14.4375 17.8594 14.0625 17.9531 13.7344 17.8125C10.5938 16.2188 7.96875 13.5938 6.42188 10.4531C6.23438 10.125 6.32813 9.75 6.60938 9.51562L8.95312 7.59375C9.1875 7.40625 9.23438 7.125 9.14062 6.84375L7.07812 2.10937C6.98438 1.875 6.75 1.6875 6.51562 1.6875C6.46875 1.6875 6.42188 1.73437 6.375 1.73437L1.96875 2.76562C1.6875 2.8125 1.5 3.04688 1.5 3.375C1.5 14.0156 10.1719 22.6875 20.8125 22.6875C21.1406 22.6875 21.375 22.5 21.4219 22.2188ZM23.25 0.1875C23.625 0.1875 24 0.5625 24 0.9375V6.9375C24 7.35937 23.625 7.6875 23.25 7.6875C22.8281 7.6875 22.5 7.35937 22.5 6.9375V2.76562L14.7656 10.5C14.625 10.6406 14.4375 10.6875 14.25 10.6875C14.0156 10.6875 13.8281 10.6406 13.6875 10.5C13.4062 10.2188 13.4062 9.70312 13.6875 9.42188L21.4219 1.6875L17.25 1.6875C16.8281 1.6875 16.5 1.35937 16.5 0.9375C16.5 0.5625 16.8281 0.1875 17.25 0.1875L23.25 0.1875Z" fill="#5F7C6A"/>
</svg>
