<svg width="37" height="37" viewBox="0 0 37 37" fill="none" xmlns="http://www.w3.org/2000/svg">
<circle cx="18.3462" cy="18.3462" r="17.8462" fill="white" stroke="#5F7C6A"/>
<path d="M18.2347 11C10.1153 11.0007 9.42678 19.5735 13.2248 21.2292C13.6153 21.4027 13.5637 21.1909 13.8997 19.9233C13.9151 19.8721 13.9165 19.8178 13.9036 19.7659C13.8908 19.714 13.8641 19.6664 13.8264 19.628C11.8693 17.3953 13.4445 12.8051 17.9554 12.8051C24.4838 12.8051 23.264 21.7149 19.0912 21.7149C18.0157 21.7149 17.2145 20.8822 17.4679 19.8518C17.7752 18.6246 18.3768 17.3053 18.3768 16.4209C18.3768 14.1916 15.0096 14.5223 15.0096 17.476C15.0096 18.3888 15.337 19.0049 15.337 19.0049C15.337 19.0049 14.2536 23.3217 14.0526 24.1283C13.8214 25.0546 13.9348 28.4685 14.339 27.9459C14.446 27.8078 15.7556 25.9652 16.1225 24.6332C16.256 24.1481 16.8038 22.1795 16.8038 22.1795C17.1649 22.8225 18.206 23.3607 19.3152 23.3607C22.6149 23.3607 25 20.4998 25 16.9498C24.9885 13.5465 22.0356 11 18.2347 11Z" fill="#5F7C6A"/>
</svg>
