<svg width="34" height="34" viewBox="0 0 34 34" fill="none" xmlns="http://www.w3.org/2000/svg">
<circle cx="16.7061" cy="16.7061" r="16.2061" fill="white" stroke="#E9BC25"/>
<mask id="path-2-inside-1_104_901" fill="white">
<path fill-rule="evenodd" clip-rule="evenodd" d="M11.4683 19.369H23.3836V26.0714C23.3836 26.2689 23.3051 26.4583 23.1655 26.598C23.0258 26.7377 22.8364 26.8161 22.6389 26.8161H12.213C12.0155 26.8161 11.826 26.7377 11.6864 26.598C11.5467 26.4583 11.4683 26.2689 11.4683 26.0714V19.369ZM25.6177 11.1772H9.23413C8.6416 11.1772 8.07334 11.4126 7.65436 11.8316C7.23538 12.2506 7 12.8188 7 13.4114V19.369C7 19.9616 7.23538 20.5298 7.65436 20.9488C8.07334 21.3678 8.6416 21.6032 9.23413 21.6032H9.97884V19.369C9.97884 18.974 10.1358 18.5952 10.4151 18.3159C10.6944 18.0365 11.0732 17.8796 11.4683 17.8796H23.3836C23.7786 17.8796 24.1575 18.0365 24.4368 18.3159C24.7161 18.5952 24.873 18.974 24.873 19.369V25.3267V21.6032H25.6177C26.2103 21.6032 26.7785 21.3678 27.1975 20.9488C27.6165 20.5298 27.8519 19.9616 27.8519 19.369V13.4114C27.8519 12.8188 27.6165 12.2506 27.1975 11.8316C26.7785 11.4126 26.2103 11.1772 25.6177 11.1772ZM13.7024 24.582H21.1495C21.347 24.582 21.5364 24.5035 21.6761 24.3639C21.8157 24.2242 21.8942 24.0348 21.8942 23.8373C21.8942 23.6398 21.8157 23.4504 21.6761 23.3107C21.5364 23.171 21.347 23.0926 21.1495 23.0926H13.7024C13.5049 23.0926 13.3155 23.171 13.1758 23.3107C13.0361 23.4504 12.9577 23.6398 12.9577 23.8373C12.9577 24.0348 13.0361 24.2242 13.1758 24.3639C13.3155 24.5035 13.5049 24.582 13.7024 24.582ZM13.7024 21.6032H19.6601C19.8576 21.6032 20.047 21.5247 20.1866 21.385C20.3263 21.2454 20.4048 21.056 20.4048 20.8585C20.4048 20.6609 20.3263 20.4715 20.1866 20.3319C20.047 20.1922 19.8576 20.1137 19.6601 20.1137H13.7024C13.5049 20.1137 13.3155 20.1922 13.1758 20.3319C13.0361 20.4715 12.9577 20.6609 12.9577 20.8585C12.9577 21.056 13.0361 21.2454 13.1758 21.385C13.3155 21.5247 13.5049 21.6032 13.7024 21.6032ZM24.1283 14.1561C24.3258 14.1561 24.5152 14.2345 24.6549 14.3742C24.7946 14.5139 24.873 14.7033 24.873 14.9008C24.873 15.0983 24.7946 15.2877 24.6549 15.4274C24.5152 15.567 24.3258 15.6455 24.1283 15.6455C23.9308 15.6455 23.7414 15.567 23.6017 15.4274C23.4621 15.2877 23.3836 15.0983 23.3836 14.9008C23.3836 14.7033 23.4621 14.5139 23.6017 14.3742C23.7414 14.2345 23.9308 14.1561 24.1283 14.1561ZM9.97884 9.68782H24.873V8.94311C24.873 8.35058 24.6376 7.78233 24.2187 7.36335C23.7997 6.94437 23.2314 6.70898 22.6389 6.70898H12.213C11.6204 6.70898 11.0522 6.94437 10.6332 7.36335C10.2142 7.78233 9.97884 8.35058 9.97884 8.94311V9.68782Z"/>
</mask>
<path fill-rule="evenodd" clip-rule="evenodd" d="M11.4683 19.369H23.3836V26.0714C23.3836 26.2689 23.3051 26.4583 23.1655 26.598C23.0258 26.7377 22.8364 26.8161 22.6389 26.8161H12.213C12.0155 26.8161 11.826 26.7377 11.6864 26.598C11.5467 26.4583 11.4683 26.2689 11.4683 26.0714V19.369ZM25.6177 11.1772H9.23413C8.6416 11.1772 8.07334 11.4126 7.65436 11.8316C7.23538 12.2506 7 12.8188 7 13.4114V19.369C7 19.9616 7.23538 20.5298 7.65436 20.9488C8.07334 21.3678 8.6416 21.6032 9.23413 21.6032H9.97884V19.369C9.97884 18.974 10.1358 18.5952 10.4151 18.3159C10.6944 18.0365 11.0732 17.8796 11.4683 17.8796H23.3836C23.7786 17.8796 24.1575 18.0365 24.4368 18.3159C24.7161 18.5952 24.873 18.974 24.873 19.369V25.3267V21.6032H25.6177C26.2103 21.6032 26.7785 21.3678 27.1975 20.9488C27.6165 20.5298 27.8519 19.9616 27.8519 19.369V13.4114C27.8519 12.8188 27.6165 12.2506 27.1975 11.8316C26.7785 11.4126 26.2103 11.1772 25.6177 11.1772ZM13.7024 24.582H21.1495C21.347 24.582 21.5364 24.5035 21.6761 24.3639C21.8157 24.2242 21.8942 24.0348 21.8942 23.8373C21.8942 23.6398 21.8157 23.4504 21.6761 23.3107C21.5364 23.171 21.347 23.0926 21.1495 23.0926H13.7024C13.5049 23.0926 13.3155 23.171 13.1758 23.3107C13.0361 23.4504 12.9577 23.6398 12.9577 23.8373C12.9577 24.0348 13.0361 24.2242 13.1758 24.3639C13.3155 24.5035 13.5049 24.582 13.7024 24.582ZM13.7024 21.6032H19.6601C19.8576 21.6032 20.047 21.5247 20.1866 21.385C20.3263 21.2454 20.4048 21.056 20.4048 20.8585C20.4048 20.6609 20.3263 20.4715 20.1866 20.3319C20.047 20.1922 19.8576 20.1137 19.6601 20.1137H13.7024C13.5049 20.1137 13.3155 20.1922 13.1758 20.3319C13.0361 20.4715 12.9577 20.6609 12.9577 20.8585C12.9577 21.056 13.0361 21.2454 13.1758 21.385C13.3155 21.5247 13.5049 21.6032 13.7024 21.6032ZM24.1283 14.1561C24.3258 14.1561 24.5152 14.2345 24.6549 14.3742C24.7946 14.5139 24.873 14.7033 24.873 14.9008C24.873 15.0983 24.7946 15.2877 24.6549 15.4274C24.5152 15.567 24.3258 15.6455 24.1283 15.6455C23.9308 15.6455 23.7414 15.567 23.6017 15.4274C23.4621 15.2877 23.3836 15.0983 23.3836 14.9008C23.3836 14.7033 23.4621 14.5139 23.6017 14.3742C23.7414 14.2345 23.9308 14.1561 24.1283 14.1561ZM9.97884 9.68782H24.873V8.94311C24.873 8.35058 24.6376 7.78233 24.2187 7.36335C23.7997 6.94437 23.2314 6.70898 22.6389 6.70898H12.213C11.6204 6.70898 11.0522 6.94437 10.6332 7.36335C10.2142 7.78233 9.97884 8.35058 9.97884 8.94311V9.68782Z" fill="#E9BC25"/>
<path d="M11.4683 19.369V3.36904H-4.53175V19.369H11.4683ZM23.3836 19.369H39.3836V3.36904H23.3836V19.369ZM11.4683 26.0714H27.4683H11.4683ZM7 13.4114H-9H7ZM7 19.369H-9H7ZM9.23413 21.6032V37.6032V21.6032ZM9.97884 21.6032V37.6032H25.9788V21.6032H9.97884ZM24.873 21.6032V5.60316H8.87302V21.6032H24.873ZM25.6177 21.6032V37.6032V21.6032ZM27.8519 19.369H43.8519H27.8519ZM27.8519 13.4114H43.8519H27.8519ZM9.97884 9.68782H-6.02116V25.6878H9.97884V9.68782ZM24.873 9.68782V25.6878H40.873V9.68782H24.873ZM24.873 8.94311H40.873H24.873ZM12.213 6.70898V-9.29102V6.70898ZM11.4683 19.369V35.369H23.3836V19.369V3.36904H11.4683V19.369ZM23.3836 19.369H7.3836V26.0714H23.3836H39.3836V19.369H23.3836ZM23.3836 26.0714H7.3836C7.3836 22.0255 8.99082 18.1453 11.8518 15.2843L23.1655 26.598L34.4792 37.9117C37.6195 34.7714 39.3836 30.5123 39.3836 26.0714H23.3836ZM23.1655 26.598L11.8518 15.2843C14.7127 12.4233 18.593 10.8161 22.6389 10.8161V26.8161V42.8161C27.0798 42.8161 31.3389 41.052 34.4792 37.9117L23.1655 26.598ZM22.6389 26.8161V10.8161H12.213V26.8161V42.8161H22.6389V26.8161ZM12.213 26.8161V10.8161C16.2589 10.8161 20.1391 12.4234 23.0001 15.2843L11.6864 26.598L0.372666 37.9117C3.51293 41.052 7.77202 42.8161 12.213 42.8161V26.8161ZM11.6864 26.598L23.0001 15.2843C25.861 18.1452 27.4683 22.0255 27.4683 26.0714H11.4683H-4.53175C-4.53175 30.5124 -2.76758 34.7715 0.372666 37.9117L11.6864 26.598ZM11.4683 26.0714H27.4683V19.369H11.4683H-4.53175V26.0714H11.4683ZM25.6177 11.1772V-4.82276H9.23413V11.1772V27.1772H25.6177V11.1772ZM9.23413 11.1772V-4.82276C4.39814 -4.82276 -0.239782 -2.90168 -3.65935 0.51789L7.65436 11.8316L18.9681 23.1453C16.3865 25.7269 12.8851 27.1772 9.23413 27.1772V11.1772ZM7.65436 11.8316L-3.65935 0.51789C-7.07891 3.93745 -9 8.57538 -9 13.4114H7H23C23 17.0623 21.5497 20.5637 18.9681 23.1453L7.65436 11.8316ZM7 13.4114H-9V19.369H7H23V13.4114H7ZM7 19.369H-9C-9 24.205 -7.07891 28.843 -3.65935 32.2625L7.65436 20.9488L18.9681 9.6351C21.5497 12.2167 23 15.7181 23 19.369H7ZM7.65436 20.9488L-3.65935 32.2625C-0.239782 35.6821 4.39814 37.6032 9.23413 37.6032V21.6032V5.60316C12.8851 5.60316 16.3865 7.05349 18.9681 9.6351L7.65436 20.9488ZM9.23413 21.6032V37.6032H9.97884V21.6032V5.60316H9.23413V21.6032ZM9.97884 21.6032H25.9788V19.369H9.97884H-6.02116V21.6032H9.97884ZM9.97884 19.369H25.9788C25.9788 23.2175 24.45 26.9083 21.7288 29.6296L10.4151 18.3159L-0.898632 7.00215C-4.17853 10.2821 -6.02116 14.7306 -6.02116 19.369H9.97884ZM10.4151 18.3159L21.7288 29.6296C19.0075 32.3508 15.3167 33.8796 11.4683 33.8796V17.8796V1.87962C6.82976 1.87962 2.38127 3.72225 -0.898632 7.00215L10.4151 18.3159ZM11.4683 17.8796V33.8796H23.3836V17.8796V1.87962H11.4683V17.8796ZM23.3836 17.8796V33.8796C19.5351 33.8796 15.8443 32.3508 13.1231 29.6296L24.4368 18.3159L35.7505 7.00215C32.4706 3.72226 28.0221 1.87962 23.3836 1.87962V17.8796ZM24.4368 18.3159L13.1231 29.6296C10.4018 26.9083 8.87302 23.2175 8.87302 19.369H24.873H40.873C40.873 14.7305 39.0304 10.282 35.7505 7.00215L24.4368 18.3159ZM24.873 19.369H8.87302V25.3267H24.873H40.873V19.369H24.873ZM24.873 25.3267H40.873V21.6032H24.873H8.87302V25.3267H24.873ZM24.873 21.6032V37.6032H25.6177V21.6032V5.60316H24.873V21.6032ZM25.6177 21.6032V37.6032C30.4537 37.6032 35.0916 35.6821 38.5112 32.2625L27.1975 20.9488L15.8838 9.6351C18.4654 7.05349 21.9668 5.60316 25.6177 5.60316V21.6032ZM27.1975 20.9488L38.5112 32.2625C41.9308 28.8429 43.8519 24.205 43.8519 19.369H27.8519H11.8519C11.8519 15.7181 13.3022 12.2167 15.8838 9.6351L27.1975 20.9488ZM27.8519 19.369H43.8519V13.4114H27.8519H11.8519V19.369H27.8519ZM27.8519 13.4114H43.8519C43.8519 8.57538 41.9308 3.93746 38.5112 0.51789L27.1975 11.8316L15.8838 23.1453C13.3022 20.5637 11.8519 17.0623 11.8519 13.4114H27.8519ZM27.1975 11.8316L38.5112 0.51789C35.0916 -2.90168 30.4537 -4.82276 25.6177 -4.82276V11.1772V27.1772C21.9668 27.1772 18.4654 25.7269 15.8838 23.1453L27.1975 11.8316ZM13.7024 24.582V40.582H21.1495V24.582V8.582H13.7024V24.582ZM21.1495 24.582V40.582C25.5904 40.582 29.8495 38.8179 32.9898 35.6776L21.6761 24.3639L10.3624 13.0502C13.2233 10.1892 17.1036 8.582 21.1495 8.582V24.582ZM21.6761 24.3639L32.9898 35.6776C36.13 32.5373 37.8942 28.2782 37.8942 23.8373H21.8942H5.89418C5.89418 19.7914 7.5014 15.9111 10.3624 13.0502L21.6761 24.3639ZM21.8942 23.8373H37.8942C37.8942 19.3964 36.13 15.1373 32.9898 11.997L21.6761 23.3107L10.3624 34.6244C7.5014 31.7635 5.89418 27.8832 5.89418 23.8373H21.8942ZM21.6761 23.3107L32.9898 11.997C29.8495 8.85672 25.5904 7.09258 21.1495 7.09258V23.0926V39.0926C17.1036 39.0926 13.2233 37.4854 10.3624 34.6244L21.6761 23.3107ZM21.1495 23.0926V7.09258H13.7024V23.0926V39.0926H21.1495V23.0926ZM13.7024 23.0926V7.09258C9.26144 7.09258 5.00235 8.85673 1.86208 11.997L13.1758 23.3107L24.4895 34.6244C21.6286 37.4854 17.7483 39.0926 13.7024 39.0926V23.0926ZM13.1758 23.3107L1.86208 11.997C-1.27816 15.1372 -3.04233 19.3963 -3.04233 23.8373H12.9577H28.9577C28.9577 27.8832 27.3504 31.7635 24.4895 34.6244L13.1758 23.3107ZM12.9577 23.8373H-3.04233C-3.04233 28.2783 -1.27816 32.5373 1.86208 35.6776L13.1758 24.3639L24.4895 13.0502C27.3504 15.9111 28.9577 19.7913 28.9577 23.8373H12.9577ZM13.1758 24.3639L1.86208 35.6776C5.00235 38.8179 9.26144 40.582 13.7024 40.582V24.582V8.582C17.7483 8.582 21.6286 10.1892 24.4895 13.0502L13.1758 24.3639ZM13.7024 21.6032V37.6032H19.6601V21.6032V5.60316H13.7024V21.6032ZM19.6601 21.6032V37.6032C24.101 37.6032 28.3601 35.839 31.5004 32.6988L20.1866 21.385L8.87293 10.0713C11.7339 7.21038 15.6141 5.60316 19.6601 5.60316V21.6032ZM20.1866 21.385L31.5004 32.6988C34.6406 29.5585 36.4048 25.2994 36.4048 20.8585H20.4048H4.40476C4.40476 16.8125 6.01198 12.9323 8.87293 10.0713L20.1866 21.385ZM20.4048 20.8585H36.4048C36.4048 16.4175 34.6406 12.1584 31.5004 9.01816L20.1866 20.3319L8.87293 31.6456C6.01198 28.7846 4.40476 24.9044 4.40476 20.8585H20.4048ZM20.1866 20.3319L31.5004 9.01816C28.3601 5.87788 24.101 4.11375 19.6601 4.11375V20.1137V36.1137C15.6141 36.1137 11.7339 34.5065 8.87293 31.6456L20.1866 20.3319ZM19.6601 20.1137V4.11375H13.7024V20.1137V36.1137H19.6601V20.1137ZM13.7024 20.1137V4.11375C9.26144 4.11375 5.00235 5.8779 1.86208 9.01816L13.1758 20.3319L24.4895 31.6456C21.6286 34.5065 17.7483 36.1137 13.7024 36.1137V20.1137ZM13.1758 20.3319L1.86208 9.01816C-1.27816 12.1584 -3.04233 16.4175 -3.04233 20.8585H12.9577H28.9577C28.9577 24.9044 27.3504 28.7846 24.4895 31.6456L13.1758 20.3319ZM12.9577 20.8585H-3.04233C-3.04233 25.2994 -1.27816 29.5585 1.86208 32.6988L13.1758 21.385L24.4895 10.0713C27.3504 12.9323 28.9577 16.8125 28.9577 20.8585H12.9577ZM13.1758 21.385L1.86208 32.6988C5.00235 35.839 9.26144 37.6032 13.7024 37.6032V21.6032V5.60316C17.7483 5.60316 21.6286 7.21039 24.4895 10.0713L13.1758 21.385ZM24.1283 14.1561V30.1561C20.0824 30.1561 16.2021 28.5488 13.3412 25.6879L24.6549 14.3742L35.9686 3.06049C32.8284 -0.0797591 28.5693 -1.84393 24.1283 -1.84393V14.1561ZM24.6549 14.3742L13.3412 25.6879C10.4802 22.827 8.87302 18.9467 8.87302 14.9008H24.873H40.873C40.873 10.4598 39.1089 6.20075 35.9686 3.06049L24.6549 14.3742ZM24.873 14.9008H8.87302C8.87302 10.8549 10.4802 6.97461 13.3412 4.11366L24.6549 15.4274L35.9686 26.7411C39.1089 23.6008 40.873 19.3417 40.873 14.9008H24.873ZM24.6549 15.4274L13.3412 4.11366C16.2021 1.25274 20.0824 -0.354507 24.1283 -0.354507V15.6455V31.6455C28.5693 31.6455 32.8284 29.8813 35.9686 26.7411L24.6549 15.4274ZM24.1283 15.6455V-0.354507C28.1743 -0.354507 32.0545 1.25274 34.9154 4.11366L23.6017 15.4274L12.288 26.7411C15.4283 29.8813 19.6873 31.6455 24.1283 31.6455V15.6455ZM23.6017 15.4274L34.9154 4.11366C37.7764 6.97461 39.3836 10.8549 39.3836 14.9008H23.3836H7.3836C7.3836 19.3417 9.14775 23.6008 12.288 26.7411L23.6017 15.4274ZM23.3836 14.9008H39.3836C39.3836 18.9467 37.7764 22.827 34.9154 25.6879L23.6017 14.3742L12.288 3.06049C9.14775 6.20075 7.3836 10.4598 7.3836 14.9008H23.3836ZM23.6017 14.3742L34.9154 25.6879C32.0545 28.5488 28.1743 30.1561 24.1283 30.1561V14.1561V-1.84393C19.6873 -1.84393 15.4283 -0.0797591 12.288 3.06049L23.6017 14.3742ZM9.97884 9.68782V25.6878H24.873V9.68782V-6.31218H9.97884V9.68782ZM24.873 9.68782H40.873V8.94311H24.873H8.87302V9.68782H24.873ZM24.873 8.94311H40.873C40.873 4.10712 38.9519 -0.530798 35.5324 -3.95036L24.2187 7.36335L12.9049 18.6771C10.3233 16.0954 8.87302 12.594 8.87302 8.94311H24.873ZM24.2187 7.36335L35.5324 -3.95036C32.1128 -7.36993 27.4749 -9.29102 22.6389 -9.29102V6.70898V22.709C18.988 22.709 15.4866 21.2587 12.9049 18.6771L24.2187 7.36335ZM22.6389 6.70898V-9.29102H12.213V6.70898V22.709H22.6389V6.70898ZM12.213 6.70898V-9.29102C7.37697 -9.29102 2.73905 -7.36992 -0.680511 -3.95036L10.6332 7.36335L21.9469 18.6771C19.3653 21.2587 15.8639 22.709 12.213 22.709V6.70898ZM10.6332 7.36335L-0.680511 -3.95036C-4.10007 -0.530803 -6.02116 4.10712 -6.02116 8.94311H9.97884H25.9788C25.9788 12.594 24.5285 16.0955 21.9469 18.6771L10.6332 7.36335ZM9.97884 8.94311H-6.02116V9.68782H9.97884H25.9788V8.94311H9.97884Z" fill="#E9BC25" mask="url(#path-2-inside-1_104_901)"/>
</svg>
