<svg width="164" height="164" viewBox="0 0 164 164" fill="none" xmlns="http://www.w3.org/2000/svg">
<g clip-path="url(#clip0_216_1304)">
<path d="M9.60938 9.60938H38.4375V0H0V38.4375H9.60938V9.60938ZM125.562 0V9.60938H154.391V38.4375H164V0H125.562ZM154.391 154.391H125.562V164H164V125.562H154.391V154.391ZM9.60938 125.562H0V164H38.4375V154.391H9.60938V125.562Z" fill="black"/>
<path d="M19.5391 19.2188V67.2656H67.5859V38.4375H77.1953V28.8281H67.5859V19.2188H19.5391ZM57.9766 57.6562H29.1484V28.8281H57.9766V57.6562ZM144.461 144.141V96.0938H125.242V86.4844H115.633V96.0938H86.8047V105.703H96.4141V115.312H86.8047V124.922H96.4141V144.141H144.461ZM106.023 105.703H134.852V134.531H106.023V105.703ZM48.3672 86.4844H67.5859V76.875H19.5391V86.4844H38.7578V96.0938H29.1484V105.703H38.7578V124.922H29.1484V134.531H38.7578V144.141H86.8047V134.531H77.1953V124.922H67.5859V134.531H48.3672V124.922H57.9766V115.312H48.3672V86.4844Z" fill="black"/>
<path d="M38.7578 38.4375H48.3672V48.0469H38.7578V38.4375ZM115.633 38.4375H125.242V48.0469H115.633V38.4375Z" fill="black"/>
<path d="M125.242 67.2656H144.461V19.2188H96.4141V67.2656H115.633V76.875H125.242V67.2656ZM106.023 57.6562V28.8281H134.852V57.6562H106.023ZM144.461 86.4844V76.875H125.242V86.4844H144.461ZM115.633 115.312H125.242V124.922H115.633V115.312ZM77.1953 105.703H86.8047V115.312H77.1953V105.703ZM57.9766 115.312H67.5859V96.0938H57.9766V115.312ZM67.5859 86.4844H77.1953V96.0938H67.5859V86.4844ZM29.1484 105.703H19.5391V124.922H29.1484V105.703ZM19.5391 134.531H29.1484V144.141H19.5391V134.531ZM77.1953 19.2188H86.8047V28.8281H77.1953V19.2188ZM77.1953 57.6562H86.8047V38.4375H77.1953V57.6562ZM86.8047 76.875V67.2656H77.1953V86.4844H115.633V76.875H86.8047Z" fill="black"/>
</g>
<defs>
<clipPath id="clip0_216_1304">
<rect width="164" height="164" fill="white"/>
</clipPath>
</defs>
</svg>
