<svg width="31" height="23" viewBox="0 0 31 23" fill="none" xmlns="http://www.w3.org/2000/svg">
<path d="M2.70588 21.1397C1.01471 19.2794 0 17.25 0 13.8676C0 7.94853 4.22794 2.70588 10.1471 0L11.6691 2.19853C6.08824 5.24265 4.90441 9.13235 4.56618 11.6691C5.41177 11.1618 6.59559 10.9926 7.77941 11.1618C10.8235 11.5 13.1912 13.8676 13.1912 17.0809C13.1912 18.6029 12.5147 20.125 11.5 21.3088C10.3162 22.4926 8.96324 23 7.27206 23C5.41177 23 3.72059 22.1544 2.70588 21.1397ZM19.6176 21.1397C17.9265 19.2794 16.9118 17.25 16.9118 13.8676C16.9118 7.94853 21.1397 2.70588 27.0588 0L28.5809 2.19853C23 5.24265 21.8162 9.13235 21.4779 11.6691C22.3235 11.1618 23.5074 10.9926 24.6912 11.1618C27.7353 11.5 30.1029 13.8676 30.1029 17.0809C30.1029 18.6029 29.4265 20.125 28.4118 21.3088C27.3971 22.4926 25.875 23 24.1838 23C22.3235 23 20.6324 22.1544 19.6176 21.1397Z" fill="#333333"/>
</svg>
