<svg width="19" height="19" viewBox="0 0 19 19" fill="none" xmlns="http://www.w3.org/2000/svg">
<path d="M17.8242 17.3008C18.0352 17.5117 18.0352 17.8984 17.8242 18.1094C17.7188 18.2148 17.5781 18.25 17.4375 18.25C17.2617 18.25 17.1211 18.2148 16.9805 18.1094L12.0234 13.1172C10.7227 14.2422 9.07031 14.875 7.27734 14.875C3.26953 14.875 0 11.6055 0 7.5625C0 3.55469 3.23438 0.25 7.27734 0.25C11.2852 0.25 14.5898 3.55469 14.5898 7.5625C14.5898 9.39062 13.957 11.043 12.832 12.3438L17.8242 17.3008ZM7.3125 13.75C10.7227 13.75 13.5 11.0078 13.5 7.5625C13.5 4.15234 10.7227 1.375 7.3125 1.375C3.86719 1.375 1.125 4.15234 1.125 7.5625C1.125 10.9727 3.86719 13.75 7.3125 13.75Z" fill="#666666"/>
</svg>
