<svg width="18" height="21" viewBox="0 0 18 21" fill="none" xmlns="http://www.w3.org/2000/svg">
<path d="M14.0066 9.7331C13.9165 9.68974 13.8249 9.64801 13.7322 9.60806C13.5707 6.62137 11.9448 4.91148 9.21466 4.89398C9.20229 4.89391 9.18999 4.89391 9.17762 4.89391C7.54465 4.89391 6.18653 5.59354 5.35062 6.86664L6.8521 7.90046C7.47656 6.9495 8.45659 6.74677 9.17834 6.74677C9.18668 6.74677 9.19504 6.74678 9.20329 6.74685C10.1022 6.7526 10.7806 7.01494 11.2196 7.52653C11.5391 7.89899 11.7528 8.41367 11.8586 9.06323C11.0616 8.92726 10.1996 8.88546 9.2782 8.93849C6.68251 9.08856 5.0138 10.6081 5.12588 12.7194C5.18275 13.7904 5.71432 14.7118 6.62261 15.3137C7.39057 15.8225 8.37964 16.0713 9.40758 16.015C10.7651 15.9403 11.83 15.4205 12.573 14.4699C13.1372 13.748 13.4941 12.8125 13.6517 11.6338C14.2986 12.0257 14.7781 12.5414 15.0429 13.1613C15.4932 14.2151 15.5194 15.9469 14.1116 17.3587C12.8782 18.5955 11.3956 19.1306 9.1549 19.1471C6.66938 19.1286 4.78962 18.3285 3.56745 16.769C2.42299 15.3088 1.83152 13.1996 1.80946 10.5C1.83152 7.80038 2.42299 5.69117 3.56745 4.23092C4.78962 2.67147 6.66935 1.87141 9.15487 1.85287C11.6584 1.87155 13.5709 2.67547 14.8399 4.24244C15.4621 5.01086 15.9312 5.97721 16.2405 7.10394L18 6.63274C17.6251 5.24587 17.0353 4.05078 16.2326 3.05966C14.6058 1.05073 12.2266 0.0213443 9.161 0H9.14873C6.08938 0.0212702 3.73679 1.05457 2.15632 3.07117C0.749916 4.8657 0.0244527 7.36266 7.62782e-05 10.4926L0 10.5L7.62782e-05 10.5074C0.0244527 13.6373 0.749916 16.1343 2.15632 17.9289C3.73679 19.9454 6.08938 20.9788 9.14873 21H9.161C11.8809 20.9811 13.7981 20.2663 15.3775 18.6825C17.4439 16.6103 17.3817 14.013 16.7006 12.4185C16.212 11.2751 15.2805 10.3465 14.0066 9.7331ZM9.3104 14.1648C8.17276 14.2291 6.99087 13.7166 6.93259 12.6188C6.88939 11.8048 7.50971 10.8966 9.38022 10.7884C9.59443 10.776 9.80463 10.7699 10.0111 10.7699C10.6906 10.7699 11.3262 10.8362 11.904 10.963C11.6885 13.6648 10.4242 14.1035 9.3104 14.1648Z" fill="#5F7C6A"/>
</svg>
