<svg width="34" height="34" viewBox="0 0 34 34" fill="none" xmlns="http://www.w3.org/2000/svg">
<circle cx="16.7061" cy="16.7061" r="16.2061" fill="white" stroke="#5F7C6A"/>
<path d="M22.0066 16.7331C21.9165 16.6897 21.8249 16.648 21.7322 16.6081C21.5707 13.6214 19.9448 11.9115 17.2147 11.894C17.2023 11.8939 17.19 11.8939 17.1776 11.8939C15.5446 11.8939 14.1865 12.5935 13.3506 13.8666L14.8521 14.9005C15.4766 13.9495 16.4566 13.7468 17.1783 13.7468C17.1867 13.7468 17.195 13.7468 17.2033 13.7469C18.1022 13.7526 18.7806 14.0149 19.2196 14.5265C19.5391 14.899 19.7528 15.4137 19.8586 16.0632C19.0616 15.9273 18.1996 15.8855 17.2782 15.9385C14.6825 16.0886 13.0138 17.6081 13.1259 19.7194C13.1827 20.7904 13.7143 21.7118 14.6226 22.3137C15.3906 22.8225 16.3796 23.0713 17.4076 23.015C18.7651 22.9403 19.83 22.4205 20.573 21.4699C21.1372 20.748 21.4941 19.8125 21.6517 18.6338C22.2986 19.0257 22.7781 19.5414 23.0429 20.1613C23.4932 21.2151 23.5194 22.9469 22.1116 24.3587C20.8782 25.5955 19.3956 26.1306 17.1549 26.1471C14.6694 26.1286 12.7896 25.3285 11.5675 23.769C10.423 22.3088 9.83152 20.1996 9.80946 17.5C9.83152 14.8004 10.423 12.6912 11.5675 11.2309C12.7896 9.67147 14.6694 8.87141 17.1549 8.85287C19.6584 8.87155 21.5709 9.67547 22.8399 11.2424C23.4621 12.0109 23.9312 12.9772 24.2405 14.1039L26 13.6327C25.6251 12.2459 25.0353 11.0508 24.2326 10.0597C22.6058 8.05073 20.2266 7.02134 17.161 7H17.1487C14.0894 7.02127 11.7368 8.05457 10.1563 10.0712C8.74992 11.8657 8.02445 14.3627 8.00008 17.4926L8 17.5L8.00008 17.5074C8.02445 20.6373 8.74992 23.1343 10.1563 24.9289C11.7368 26.9454 14.0894 27.9788 17.1487 28H17.161C19.8809 27.9811 21.7981 27.2663 23.3775 25.6825C25.4439 23.6103 25.3817 21.013 24.7006 19.4185C24.212 18.2751 23.2805 17.3465 22.0066 16.7331ZM17.3104 21.1648C16.1728 21.2291 14.9909 20.7166 14.9326 19.6188C14.8894 18.8048 15.5097 17.8966 17.3802 17.7884C17.5944 17.776 17.8046 17.7699 18.0111 17.7699C18.6906 17.7699 19.3262 17.8362 19.904 17.963C19.6885 20.6648 18.4242 21.1035 17.3104 21.1648Z" fill="#5F7C6A"/>
</svg>
