<svg width="34" height="34" viewBox="0 0 34 34" fill="none" xmlns="http://www.w3.org/2000/svg">
<circle cx="16.7061" cy="16.7061" r="16.2061" fill="white" stroke="#5F7C6A"/>
<path d="M13.959 9.65088L17.5615 14.8843L21.3438 10.4839L22.4365 9.21826H23.7129L18.1309 15.7114L18.1318 15.7124L23.167 23.0298L24.248 24.5972H19.8213L19.5225 24.1646L15.6738 18.5718H15.6729L10.4932 24.5981H9.2168L15.1035 17.7456L10.3145 10.7866L9.23438 9.21729H13.6602L13.959 9.65088Z" fill="#5F7C6A"/>
<path d="M13.959 9.65088L14.5768 9.22562L14.5765 9.22527L13.959 9.65088ZM17.5615 14.8843L16.9437 15.3095L17.4957 16.1114L18.1303 15.3731L17.5615 14.8843ZM21.3438 10.4839L20.7761 9.99374L20.775 9.99501L21.3438 10.4839ZM22.4365 9.21826V8.46826H22.0932L21.8688 8.72812L22.4365 9.21826ZM23.7129 9.21826L24.2816 9.70719L25.3467 8.46826H23.7129V9.21826ZM18.1309 15.7114L17.5621 15.2225L17.1087 15.7499L17.6005 16.2418L18.1309 15.7114ZM18.1318 15.7124L18.7497 15.2873L18.7107 15.2307L18.6622 15.1821L18.1318 15.7124ZM23.167 23.0298L22.5491 23.4549L22.5496 23.4556L23.167 23.0298ZM24.248 24.5972V25.3472H25.6764L24.8654 24.1713L24.248 24.5972ZM19.8213 24.5972L19.2042 25.0234L19.4278 25.3472H19.8213V24.5972ZM19.5225 24.1646L18.9046 24.5897L18.9054 24.5908L19.5225 24.1646ZM15.6738 18.5718L16.2917 18.1466L16.0681 17.8218H15.6738V18.5718ZM15.6729 18.5718V17.8218H15.3285L15.1041 18.0829L15.6729 18.5718ZM10.4932 24.5981V25.3481H10.8375L11.0619 25.087L10.4932 24.5981ZM9.2168 24.5981L8.64789 24.1094L7.58376 25.3481H9.2168V24.5981ZM15.1035 17.7456L15.6724 18.2343L16.0488 17.7962L15.7213 17.3204L15.1035 17.7456ZM10.3145 10.7866L10.9323 10.3614L10.9323 10.3614L10.3145 10.7866ZM9.23438 9.21729V8.46729H7.80773L8.61656 9.64249L9.23438 9.21729ZM13.6602 9.21729L14.2777 8.79168L14.0541 8.46729H13.6602V9.21729ZM13.959 9.65088L13.3412 10.0761L16.9437 15.3095L17.5615 14.8843L18.1793 14.459L14.5768 9.22562L13.959 9.65088ZM17.5615 14.8843L18.1303 15.3731L21.9125 10.9728L21.3438 10.4839L20.775 9.99501L16.9927 14.3954L17.5615 14.8843ZM21.3438 10.4839L21.9114 10.974L23.0042 9.70841L22.4365 9.21826L21.8688 8.72812L20.7761 9.99374L21.3438 10.4839ZM22.4365 9.21826V9.96826H23.7129V9.21826V8.46826H22.4365V9.21826ZM23.7129 9.21826L23.1442 8.72934L17.5621 15.2225L18.1309 15.7114L18.6996 16.2003L24.2816 9.70719L23.7129 9.21826ZM18.1309 15.7114L17.6005 16.2418L17.6015 16.2427L18.1318 15.7124L18.6622 15.1821L18.6612 15.1811L18.1309 15.7114ZM18.1318 15.7124L17.514 16.1376L22.5491 23.4549L23.167 23.0298L23.7848 22.6046L18.7497 15.2873L18.1318 15.7124ZM23.167 23.0298L22.5496 23.4556L23.6307 25.023L24.248 24.5972L24.8654 24.1713L23.7844 22.604L23.167 23.0298ZM24.248 24.5972V23.8472H19.8213V24.5972V25.3472H24.248V24.5972ZM19.8213 24.5972L20.4384 24.1709L20.1396 23.7383L19.5225 24.1646L18.9054 24.5908L19.2042 25.0234L19.8213 24.5972ZM19.5225 24.1646L20.1403 23.7394L16.2917 18.1466L15.6738 18.5718L15.056 18.9969L18.9046 24.5897L19.5225 24.1646ZM15.6738 18.5718V17.8218H15.6729V18.5718V19.3218H15.6738V18.5718ZM15.6729 18.5718L15.1041 18.0829L9.92439 24.1093L10.4932 24.5981L11.0619 25.087L16.2416 19.0606L15.6729 18.5718ZM10.4932 24.5981V23.8481H9.2168V24.5981V25.3481H10.4932V24.5981ZM9.2168 24.5981L9.7857 25.0869L15.6724 18.2343L15.1035 17.7456L14.5346 17.2569L8.64789 24.1094L9.2168 24.5981ZM15.1035 17.7456L15.7213 17.3204L10.9323 10.3614L10.3145 10.7866L9.69662 11.2118L14.4857 18.1708L15.1035 17.7456ZM10.3145 10.7866L10.9323 10.3614L9.85219 8.79208L9.23438 9.21729L8.61656 9.64249L9.69663 11.2118L10.3145 10.7866ZM9.23438 9.21729V9.96729H13.6602V9.21729V8.46729H9.23438V9.21729ZM13.6602 9.21729L13.0426 9.64289L13.3414 10.0765L13.959 9.65088L14.5765 9.22527L14.2777 8.79168L13.6602 9.21729Z" fill="#5F7C6A"/>
</svg>
