<svg width="37" height="37" viewBox="0 0 37 37" fill="none" xmlns="http://www.w3.org/2000/svg">
<circle cx="18.3462" cy="18.3462" r="17.8462" fill="white" stroke="#5F7C6A"/>
<path d="M27.5879 14.4929C27.3575 13.7587 26.6819 13.1799 25.8252 12.9822C24.2602 12.6152 17.9998 12.6152 17.9998 12.6152C17.9998 12.6152 11.7396 12.6152 10.1746 12.9683C9.33435 13.1658 8.64234 13.7588 8.41187 14.4929C8 15.834 8 18.6152 8 18.6152C8 18.6152 8 21.4105 8.41187 22.7375C8.64258 23.4717 9.31787 24.0505 10.1747 24.2482C11.7561 24.6152 18 24.6152 18 24.6152C18 24.6152 24.2602 24.6152 25.8252 24.2622C26.682 24.0646 27.3575 23.4858 27.5882 22.7516C27.9999 21.4105 27.9999 18.6294 27.9999 18.6294C27.9999 18.6294 28.0164 15.834 27.5879 14.4929ZM16.0066 21.1846V16.0459L21.2124 18.6152L16.0066 21.1846Z" fill="#5F7C6A"/>
</svg>
